<?xml version="1.0" encoding="UTF-8" standalone="no"?>
<svg
   xmlns:dc="http://purl.org/dc/elements/1.1/"
   xmlns:cc="http://creativecommons.org/ns#"
   xmlns:rdf="http://www.w3.org/1999/02/22-rdf-syntax-ns#"
   xmlns:svg="http://www.w3.org/2000/svg"
   xmlns="http://www.w3.org/2000/svg"
   xmlns:sodipodi="http://sodipodi.sourceforge.net/DTD/sodipodi-0.dtd"
   xmlns:inkscape="http://www.inkscape.org/namespaces/inkscape"
   viewBox="0 0 348.98929 55.075578"
   height="55.075577"
   width="348.98929"
   xml:space="preserve"
   version="1.1"
   id="svg2"
   inkscape:version="0.91 r13725"
   sodipodi:docname="logo (1).svg"
   inkscape:export-filename="/Users/madhavkrishna/Downloads/vahan-logo.png"
   inkscape:export-xdpi="329.66159"
   inkscape:export-ydpi="329.66159"><sodipodi:namedview
     pagecolor="#ffffff"
     bordercolor="#666666"
     borderopacity="1"
     objecttolerance="10"
     gridtolerance="10"
     guidetolerance="10"
     inkscape:pageopacity="0"
     inkscape:pageshadow="2"
     inkscape:window-width="1635"
     inkscape:window-height="987"
     id="namedview3505"
     showgrid="true"
     inkscape:zoom="2.3252795"
     inkscape:cx="267.75763"
     inkscape:cy="-52.90711"
     inkscape:window-x="31"
     inkscape:window-y="15"
     inkscape:window-maximized="0"
     inkscape:current-layer="g14"
     fit-margin-top="0"
     fit-margin-left="0"
     fit-margin-right="0"
     fit-margin-bottom="0"><inkscape:grid
       type="xygrid"
       id="grid4307"
       originx="-0.25058447"
       originy="-120.43876" /></sodipodi:namedview><metadata
     id="metadata8"><rdf:RDF><cc:Work
         rdf:about=""><dc:format>image/svg+xml</dc:format><dc:type
           rdf:resource="http://purl.org/dc/dcmitype/StillImage" /><dc:title></dc:title></cc:Work></rdf:RDF></metadata><defs
     id="defs6"><clipPath
       id="clipPath18"
       clipPathUnits="userSpaceOnUse"><path
         id="path20"
         d="m 0,0 4012.68,0 0,1319 L 0,1319 0,0 Z"
         inkscape:connector-curvature="0" /></clipPath></defs><g
     transform="matrix(1.3333333,0,0,-1.3333333,-114.64543,124.76774)"
     id="g10"><g
       transform="scale(0.1,0.1)"
       id="g12"><g
         id="g14"><g
           clip-path="url(#clipPath18)"
           id="g16"
           transform="translate(-535.41952,109.66424)"><path
             id="path22"
             style="fill:#e79f19;fill-opacity:1;fill-rule:nonzero;stroke:none"
             d="m 1457.7812,417.7733 c -30.7491,-0.75417 -62.5209,2.98878 -62.5209,25.21359 0,23.39723 45.6952,22.42973 63.1037,22.82983 24.1894,0.55902 129.3745,-4.98216 145.9089,-2.7498 -17.296,6.89048 -112.3953,84.0614 -141.7605,136.8082 -16.596,29.8101 -57.3955,130.49163 67.769,189.54446 37.3418,-35.65517 228.022,-205.74216 242.7229,-218.5823 18.6697,-16.30665 21.2551,-19.14273 25.3541,17.48895 2.5248,22.56546 9.9116,165.43818 15.4214,192.98268 5.3008,26.49542 23.5406,44.26868 44.0479,44.7746 18.1701,0.44386 48.3468,-13.55498 55.0039,-17.79498 10.2869,-6.55556 6.0154,-13.26012 -34.3604,-19.51767 -1.1413,-0.17694 -2.2977,-0.40351 -3.3936,-0.78531 -9.8813,-3.42366 -22.2753,-13.60153 -22.7809,-33.27757 -0.9234,-35.92365 -1.5349,-125.58799 3.6874,-200.88659 6.8963,-99.38378 -82.9798,-136.13176 -130.6969,-136.83985 -93.3624,-1.38708 -245.3793,1.33495 -267.506,0.79176"
             inkscape:connector-curvature="0" /><path
             id="path24"
             style="fill:#100f0d;fill-opacity:1;fill-rule:nonzero;stroke:none"
             d="m 2188.78,439.902 c -6.16,-15.117 -16.24,-24.082 -31.36,-24.082 l -2.8,0 c -15.12,0 -25.76,8.965 -32.48,24.082 l -87.36,210 c -4.48,12.325 2.24,28.567 16.24,31.926 13.44,3.914 25.76,-2.805 31.36,-16.808 l 73.36,-186.473 72.79,186.473 c 5.61,14.003 17.92,20.722 31.37,16.808 14,-3.359 20.16,-19.601 15.68,-31.926 l -86.8,-210"
             inkscape:connector-curvature="0" /><path
             id="path26"
             style="fill:#100f0d;fill-opacity:1;fill-rule:nonzero;stroke:none"
             d="m 2561.17,635.898 c -47.03,0 -85.12,-33.593 -85.12,-85.671 0,-51.524 38.09,-87.364 85.12,-87.364 46.49,0 86.8,31.922 86.8,87.364 0,55.996 -44.8,85.671 -86.8,85.671 z m 87.36,-176.953 c -17.36,-29.675 -55.43,-45.918 -91.84,-45.918 -71.67,0 -132.72,53.762 -132.72,136.633 0,83.445 61.05,136.082 132.72,136.082 36.41,0 74.48,-15.117 91.84,-44.804 l 0,16.242 c 0,14.004 11.21,25.761 25.2,25.761 14.56,0 25.76,-11.757 25.76,-25.761 l 0,-215.598 c 0,-13.992 -11.2,-25.762 -25.76,-25.762 -13.99,0 -25.2,11.77 -25.2,25.762 l 0,17.363"
             inkscape:connector-curvature="0" /><path
             id="path28"
             style="fill:#100f0d;fill-opacity:1;fill-rule:nonzero;stroke:none"
             d="m 3135.73,441.582 c 0,-13.992 -11.2,-25.762 -25.76,-25.762 -13.99,0 -25.2,11.77 -25.2,25.762 l 0,124.883 c 0,43.117 -25.76,69.433 -61.6,69.433 -35.84,0 -79.52,-20.156 -79.52,-76.152 l 0,-118.164 c 0,-13.992 -11.2,-25.762 -25.75,-25.762 -14,0 -25.21,11.77 -25.21,25.762 l 0,357.844 c 0,13.992 11.21,25.762 25.21,25.762 14.55,0 25.75,-11.77 25.75,-25.762 l 0,-158.488 c 15.69,31.367 57.69,44.804 86.24,44.804 65.53,0 106.41,-42.558 105.84,-115.918 l 0,-128.242"
             inkscape:connector-curvature="0" /><path
             id="path30"
             style="fill:#100f0d;fill-opacity:1;fill-rule:nonzero;stroke:none"
             d="m 3448.21,635.898 c -47.04,0 -85.12,-33.593 -85.12,-85.671 0,-51.524 38.08,-87.364 85.12,-87.364 46.48,0 86.8,31.922 86.8,87.364 0,55.996 -44.81,85.671 -86.8,85.671 z m 87.36,-176.953 c -17.36,-29.675 -55.44,-45.918 -91.84,-45.918 -71.68,0 -132.72,53.762 -132.72,136.633 0,83.445 61.04,136.082 132.72,136.082 36.4,0 74.48,-15.117 91.84,-44.804 l 0,16.242 c 0,14.004 11.2,25.761 25.2,25.761 14.56,0 25.76,-11.757 25.76,-25.761 l 0,-215.598 c 0,-13.992 -11.2,-25.762 -25.76,-25.762 -14,0 -25.2,11.77 -25.2,25.762 l 0,17.363"
             inkscape:connector-curvature="0" /><path
             id="path32"
             style="fill:#100f0d;fill-opacity:1;fill-rule:nonzero;stroke:none"
             d="m 3830.13,640.938 c 15.68,31.367 53.2,44.804 81.75,44.804 64.97,0 100.8,-42.558 100.8,-115.918 l 0,-128.242 c 0,-13.992 -11.2,-25.762 -25.76,-25.762 -13.99,0 -25.19,11.77 -25.19,25.762 l 0,124.883 c 0,43.683 -21.85,69.433 -57.69,69.433 -36.95,0 -73.91,-20.71 -73.91,-76.152 l 0,-118.164 c 0,-13.992 -11.2,-25.762 -25.77,-25.762 -13.99,0 -25.19,11.77 -25.19,25.762 l 0,215.598 c 0,14.004 11.2,25.761 25.19,25.761 14.57,0 25.77,-11.757 25.77,-25.761 l 0,-16.242"
             inkscape:connector-curvature="0" /></g></g></g></g></svg>