<?xml version="1.0" encoding="utf-8"?>
<!-- Generator: Adobe Illustrator 16.0.0, SVG Export Plug-In . SVG Version: 6.00 Build 0)  -->
<!DOCTYPE svg PUBLIC "-//W3C//DTD SVG 1.1//EN" "http://www.w3.org/Graphics/SVG/1.1/DTD/svg11.dtd">
<svg version="1.1" id="Layer_1" xmlns="http://www.w3.org/2000/svg" xmlns:xlink="http://www.w3.org/1999/xlink" x="0px" y="0px"
	 width="238.84px" height="147.854px" viewBox="0 0 238.84 147.854" enable-background="new 0 0 238.84 147.854"
	 xml:space="preserve">
<radialGradient id="SVGID_1_" cx="74.5156" cy="609.2717" r="67.9753" gradientTransform="matrix(-0.4775 0.8786 0.8786 0.4775 -456.1271 -245.3212)" gradientUnits="userSpaceOnUse">
	<stop  offset="0" style="stop-color:#A5EFE8"/>
	<stop  offset="1" style="stop-color:#339E91"/>
</radialGradient>
<path fill="url(#SVGID_1_)" d="M60.966,58.559l-109.037,63.074l-2.604,4.793l44.812,24.352l-0.478,0.879l87.865,47.748l2.752-5.063
	l-6.58-125.903c-0.105-2.098-0.832-3.99-1.919-5.528C73.115,57.778,66.43,55.399,60.966,58.559z"/>
<g id="Object">
</g>
<g id="Text">
</g>
<g>
	<g>
		<path opacity="0.4" fill="#939598" d="M43.931,69.723l-0.002,0.033c0,0,1.322,0.824,1.678,1.122
			c0.191,0.161,0.62,0.627,0.669,0.642c0.051,0.013,0.517,0.098,0.526,0.132c0.007,0.022-0.308,0.037-0.299,0.06
			c0.013,0.035,0.552,0.133,0.552,0.133l0.1-0.001c-0.011,0.054-0.023,0.134,0.004,0.172c0.019,0.026-0.04,0.087,0.097,0.107
			c0.242,0.036,0.905,0.047,1.134,0.03c0.262-0.019,0.521-0.112,0.54-0.164c0.012-0.032-0.167-0.113-0.278-0.161h0.03
			c0,0,0.21-0.067,0.157-0.096c-0.05-0.026-0.445-0.062-0.494-0.089c-0.05-0.026,0.152-0.064,0.166-0.089
			c0.068-0.137-0.576-0.44-0.733-0.587c-0.298-0.276-0.81-1.068-0.81-1.068l1.333-0.003c0,0,1.631,0.593,2.112,0.8
			c0.493,0.213,0.891,0.658,1.727,0.853c0.08,0.019,0.375,0.038,0.438,0.058c0.125,0.041-0.142,0.116-0.043,0.157
			c0.06,0.025,0.354,0.075,0.53,0.104c0.054,0.034-0.199-1.043-0.34-1.108c-0.599-0.281-1.937-1.051-1.937-1.051l0.117-0.125H50.9
			l0.23,0.021l0.13-0.221l-0.245-0.01c-0.105-0.105-0.285-0.277-0.422-0.352c-0.117-0.063-0.468-0.188-0.639-0.25
			c-0.441-0.159-0.859-0.545-1.662-0.691c-0.496-0.089-2.52-0.204-2.52-0.204l-0.529-0.094l-0.186-0.101
			c0.172-0.041,0.31-0.092,0.311-0.128c0.001-0.015-0.017-0.033-0.042-0.055c0.001,0,0.003,0,0.004,0
			c0.162,0.005,0.261-0.03,0.22-0.077c-0.042-0.048-0.206-0.089-0.367-0.094c-0.019,0-0.034,0.001-0.051,0.002
			c-0.025-0.05-0.081-0.124-0.213-0.195c-0.186-0.101-0.727-0.267-1.967-0.265c-1.475,0.005-1.899,0.062-1.691,0.22
			c0.131,0.102,0.425,0.193,0.632,0.249c-0.122,0.009-0.128,0.048-0.004,0.092c0.129,0.045,0.345,0.078,0.49,0.075
			c0.062,0.024,0.123,0.045,0.18,0.06c0.098,0.026,0.295,0.061,0.513,0.093l0.106,0.085l-0.402,0.084
			c-0.378,0.017-1.832,0.077-2.099,0.161c-0.491,0.153-0.358,0.631-0.081,0.834c0.163,0.119,0.878,0.358,1.279,0.473
			c0.047,0.013,0.126,0.032,0.215,0.054l-0.159,0.018l0.964,0.191l1.052-0.119l-0.899,0.118L43.931,69.723L43.931,69.723z
			 M49.595,69.315l0.133,0.141l-0.256-0.061l-0.379-0.097l0,0l-0.185-0.139c0,0-0.699-0.287-0.86-0.384
			c-0.059-0.035-0.154-0.139-0.154-0.139l1.091,0.356L49.595,69.315z M43.953,69.408L43.953,69.408l-0.002,0.027l-0.886-0.198l0,0
			c-0.167-0.076-0.618-0.286-0.691-0.366c-0.081-0.09,0.033-0.329,0.033-0.329s0.926,0.337,1.139,0.451
			c0.151,0.082,0.415,0.322,0.415,0.322L43.953,69.408z"/>
		<g>
			<path fill="#645858" d="M53.406,70.916c0,0,0.253,0.683,0.29,0.921c0.01,0.062,0.044,0.205,0,0.248
				c-0.179,0.18-0.794,0.125-1.015,0c-0.148-0.084-0.308-0.419-0.354-0.584c-0.04-0.141,0-0.585,0-0.585H53.406z"/>
			<path fill="#645858" d="M49.292,70.775c0,0,0.071,0.602,0,0.784c-0.078,0.202-0.379,0.571-0.583,0.642
				c-0.18,0.062-0.625,0.013-0.748-0.133c-0.068-0.081,0.05-0.321,0.071-0.425c0.045-0.23,0.286-0.868,0.286-0.868h0.904H49.292z"/>
			<path fill="#2E2119" d="M52.839,60.982l0.656,1.593c0,0-0.056,3.05,0,4.164c0.013,0.262,0.093,0.782,0.106,1.044
				c0.03,0.584,0.198,1.788,0,2.337c-0.039,0.107-0.291,0.242-0.284,0.355c0.005,0.099,0.266,0.184,0.284,0.283
				c0.014,0.082-0.142,0.3-0.142,0.3L52.379,71.2c0,0-0.287-0.353-0.3-0.496c-0.016-0.165,0.266-0.458,0.23-0.62
				c-0.018-0.079-0.199-0.155-0.23-0.23c-0.329-0.778-0.036-2.538-0.106-3.382c-0.069-0.823-0.443-3.177-0.443-3.177h-0.927
				c0,0-0.657,3.129-0.804,4.222c-0.077,0.576-0.02,1.783-0.241,2.319c-0.041,0.098-0.23,0.249-0.23,0.354
				c0,0.106,0.229,0.249,0.23,0.354c0.001,0.109-0.23,0.372-0.23,0.372l-1.15,0.054c0,0-0.249-0.394-0.213-0.531
				c0.023-0.088,0.259-0.142,0.283-0.23c0.038-0.137-0.177-0.479-0.195-0.53c-0.018-0.054,0.282-1.897,0.354-2.532
				c0.135-1.183,0.272-4.447,0.272-4.447l0.584-1.735L52.839,60.982z"/>
			<path fill="#645858" d="M52.984,61.33l-0.141-0.385l-3.58,0.018L49.14,61.33c0,0,1.011,0.366,1.832,0.366
				C51.766,61.697,52.984,61.33,52.984,61.33z"/>
			<polygon fill="#FFC083" points="52.114,54.926 52.114,54.394 50.779,54.306 50.733,54.748 51.443,55.189 			"/>
			<g>
				<path fill="#FF8A54" d="M52.045,54.401c-0.614,0.497-1.268-0.048-1.268-0.048s0.006,0.665,0.516,0.716
					C51.959,55.135,52.146,54.32,52.045,54.401z"/>
				<path fill="#FFA969" d="M52.493,52.28c0,0,0.138,1.329,0,1.743c-0.079,0.239-0.464,0.63-0.697,0.729
					c-0.147,0.063-0.494,0.065-0.64,0c-0.215-0.098-0.552-0.484-0.626-0.709c-0.139-0.419-0.09-1.763-0.09-1.763H52.493z"/>
				<path fill="#403023" d="M52.336,52.55c-0.168-0.084-0.656-0.132-0.844-0.119c-0.166,0.01-0.753-0.06-0.9,0.016
					c-0.198,0.103-0.149,0.923-0.149,0.923s-0.267-0.563-0.206-1.216c0.058-0.624,0.426-0.848,1.452-0.848
					c0.865,0,1.026,0.662,1.027,1.061c0.001,0.484-0.162,1.003-0.162,1.003S52.553,52.657,52.336,52.55z"/>
				
					<ellipse transform="matrix(-0.9856 -0.169 0.169 -0.9856 95.394 115.0607)" fill="#FFA969" cx="52.594" cy="53.47" rx="0.196" ry="0.342"/>
				
					<ellipse transform="matrix(0.9856 -0.1688 0.1688 0.9856 -8.3032 9.2818)" fill="#FFA969" cx="50.432" cy="53.47" rx="0.197" ry="0.342"/>
			</g>
			<g>
				<path fill="#E3EFFD" d="M47.563,58.98c0.068-0.803,0.586-2.688,1.123-3.289c0.337-0.379,1.729-0.624,1.729-0.624l1.947,0.23
					c0,0,1.255,0.477,1.484,0.836c0.372,0.579,0.168,2.108,0.27,2.741c0.04,0.246,0.123,0.741,0.124,0.991
					c0.001,0.441-0.213,1.753-0.213,1.753l-0.265,0.407l-0.42-0.254c0.037-0.191,0.166-0.869,0.172-1.124
					c0.012-0.437-0.322-1.764-0.349-2.198c-0.029-0.486,0.258-1.397,0.137-1.487c-0.235-0.176-0.615,0.656-0.708,0.935
					c-0.181,0.537,0,1.702,0,2.271c0,0.224,0,0.896,0,0.896l0,0c-0.299,0.092-0.835,0.232-1.417,0.271
					c-0.787,0.054-1.372-0.128-1.676-0.256l0,0c0,0,0.097-1.108,0.1-1.479c0.004-0.426-0.012-1.284-0.088-1.703
					c-0.06-0.333-0.213-1.289-0.408-1.289c-0.248,0-0.212,0.975-0.318,1.289c-0.092,0.271-0.411,0.766-0.46,1.048
					c-0.081,0.458,0.124,1.855,0.124,1.855l0.377,0.731l-0.554,0.29c0,0-0.352-0.712-0.425-0.965
					C47.714,60.402,47.523,59.453,47.563,58.98z"/>
				<path fill="#CBDDEF" d="M52.592,60.167c0-0.568-0.181-1.733,0-2.271c0.093-0.278,0.473-1.11,0.708-0.935
					c0.121,0.09-0.166,1.001-0.137,1.487c0.027,0.435,0.36,1.762,0.349,2.198c-0.006,0.255-0.135,0.933-0.172,1.124l-0.165-0.101
					l-0.017-1.93l-0.301-1.416c0,0-0.066,0.41-0.071,0.549c-0.011,0.381,0.106,1.522,0.106,1.522l-0.054,0.585
					c0,0-0.092,0.034-0.247,0.082l0,0C52.592,61.064,52.592,60.391,52.592,60.167z"/>
				<path fill="#CBDDEF" d="M48.325,58.945c0.05-0.282,0.368-0.776,0.46-1.048c0.106-0.314,0.071-1.289,0.318-1.289
					c0.195,0,0.348,0.956,0.408,1.289c0.076,0.419,0.092,1.277,0.088,1.703c-0.002,0.371-0.1,1.479-0.1,1.479l0,0
					c-0.154-0.064-0.236-0.116-0.236-0.116s0.125-0.952,0.124-1.275c-0.001-0.453-0.213-1.791-0.213-1.791s-0.385,0.945-0.442,1.296
					c-0.063,0.391,0.018,1.576,0.018,1.576l0.248,0.673l-0.172,0.09L48.448,60.8C48.448,60.8,48.244,59.403,48.325,58.945z"/>
			</g>
			<polygon fill="#FFFFFF" points="54.238,61.299 53.171,61.016 53.07,61.654 53.867,62.167 			"/>
			<polygon fill="#FFFFFF" points="49.104,61.442 48.743,60.648 47.793,61.141 48.265,61.966 			"/>
			<polygon fill="#FFFFFF" points="52.114,54.926 52.361,55.297 51.938,56.041 51.441,55.404 50.626,55.811 50.329,55.095 
				50.733,54.748 51.443,55.189 			"/>
			<polygon fill="#3B4966" points="51.547,56.041 51.848,57.05 51.848,60.468 51.345,60.946 50.663,60.378 50.898,56.997 
				51.255,55.917 51.023,55.613 51.441,55.404 51.731,55.777 			"/>
			<path fill="#FFC083" d="M49.102,61.443l0.356,0.149l0.443,0.31c0,0-0.099,0.17-0.157,0.182c-0.098,0.019-0.356-0.182-0.356-0.182
				l-0.665,0.67l-0.397-0.67L49.102,61.443z"/>
			<path fill="#FFC083" d="M53.07,61.592l-0.478,0.31c0,0,0.019,0.157,0.06,0.182c0.091,0.054,0.418-0.076,0.418-0.076l0.425,0.567
				l0.241-0.491L53.07,61.592z"/>
			<polygon fill="#2E2119" points="52.229,61.592 52.172,61.122 52.016,61.16 52.016,61.665 			"/>
			<path fill="#2E2119" d="M50.208,61.697l0.088-0.478l-0.156-0.057c0,0-0.182,0.503-0.163,0.503
				C49.996,61.665,50.208,61.697,50.208,61.697z"/>
		</g>
	</g>
	<g>
		<path opacity="0.4" fill="#939598" d="M34.278,69.578c-0.142-0.065-0.568-0.205-0.482-0.261c0.128-0.086,1.083-0.138,1.443-0.193
			c0.021-0.004,0.047-0.009,0.072-0.013l-0.128-0.019l0.882-0.137l0.235-0.049h0l-0.092-0.058c-0.183-0.028-0.343-0.058-0.429-0.08
			c-0.057-0.016-0.12-0.037-0.182-0.061c-0.146,0.003-0.365-0.03-0.496-0.076c-0.125-0.044-0.119-0.084,0.005-0.093
			c-0.21-0.057-0.505-0.149-0.64-0.252c-0.209-0.158,0.22-0.217,1.708-0.221c1.253-0.003,1.8,0.165,1.987,0.267
			c0.134,0.072,0.19,0.147,0.215,0.197c0.017,0,0.032-0.002,0.051-0.002c0.164,0.005,0.33,0.047,0.372,0.095
			c0.041,0.047-0.058,0.082-0.222,0.078c-0.001,0-0.003,0-0.004,0c0.026,0.021,0.043,0.041,0.043,0.055
			c-0.002,0.035-0.131,0.084-0.293,0.124l0.226,0.114l1.592,0.151l-0.008,0.024c0.593,0.049,1.219,0.105,1.503,0.15
			c0.95,0.151,1.655,0.547,2.414,0.724c0.126,0.029,0.498,0.075,0.609,0.105c0.154,0.043,0.347,0.137,0.33,0.18
			c-0.017,0.042-0.259,0.117-0.467,0.137c-0.173,0.016-0.66,0.002-0.881,0.002c-0.124,0-0.497,0.001-0.497,0.001l0.986,0.325
			l1.012,0.384l-0.134,0.002H45.01l-0.323,0.005l1.623,0.79c0,0,1.834,1.333,1.911,1.366c0.042,0.02,0.441,0.071,0.441,0.071
			l-0.565,0.297c0,0-1.051,0.022-1.364-0.018c-0.11-0.016-0.147-0.047-0.156-0.079c-0.093,0.001-0.152,0.002-0.152,0.002
			s-0.112-0.182-0.253-0.243c-0.065-0.027-0.362-0.078-0.389-0.105c-0.019-0.02,0.132-0.063,0.132-0.063l-1.953-0.925l-0.911-0.465
			l-0.777-0.421l-1.146-0.002l1.405,0.998l0.373,0.578l0.057,0.316c0,0,0.499,0.102,0.59,0.14c0.042,0.017,0.066,0.051,0.081,0.081
			h0l0,0.002c0.007,0.015,0.011,0.026,0.014,0.037c0.013,0.031,0.035,0.07,0.07,0.091c0.061,0.032-0.192,0.191-0.446,0.192
			c-0.29,0.002-0.98-0.022-1.227-0.064c-0.189-0.031-0.325-0.118-0.408-0.184c-0.185-0.042-0.42-0.296-0.42-0.296L40.125,72.6
			l-1.657-0.974l-0.726-0.418l-0.289-0.001l-0.598-0.74c0,0-1.344-0.358-1.718-0.482C34.834,69.885,34.501,69.681,34.278,69.578z"/>
		<g>
			<polygon fill="#FFA969" points="46.101,55.037 46.088,54.372 44.671,54.277 44.619,55.459 45.742,55.949 			"/>
			<g>
				<path fill="#FF8A54" d="M45.993,54.656c-0.577,0.467-1.193-0.045-1.193-0.045s0.006,0.626,0.486,0.674
					C45.913,55.346,46.089,54.58,45.993,54.656z"/>
				<path fill="#FFA969" d="M46.453,52.336c0,0,0.138,1.344,0,1.762c-0.079,0.241-0.47,0.635-0.705,0.735
					c-0.148,0.063-0.498,0.065-0.646,0c-0.218-0.099-0.558-0.49-0.633-0.716c-0.141-0.423-0.091-1.781-0.091-1.781H46.453z"/>
				<path fill="#403023" d="M46.294,52.61c-0.17-0.085-0.664-0.133-0.854-0.121c-0.167,0.011-0.76-0.06-0.909,0.017
					c-0.2,0.104-0.149,0.932-0.149,0.932s-0.27-0.568-0.208-1.228c0.059-0.631,0.431-0.856,1.467-0.856
					c0.873,0,1.037,0.669,1.038,1.071c0,0.489-0.165,1.013-0.165,1.013S46.513,52.718,46.294,52.61z"/>
				
					<ellipse transform="matrix(-0.9859 -0.1674 0.1674 -0.9859 83.4921 114.1143)" fill="#FFA969" cx="46.555" cy="53.538" rx="0.198" ry="0.346"/>
				
					<ellipse transform="matrix(0.9859 -0.1672 0.1672 0.9859 -8.3265 8.1718)" fill="#FFA969" cx="44.371" cy="53.538" rx="0.199" ry="0.346"/>
			</g>
			<path fill="#414042" d="M43.863,72.874c0,0-0.105,0.38-0.105,0.511c0,0.13,0.168,0.396,0.105,0.51
				c-0.085,0.155-0.485,0.247-0.662,0.249c-0.204,0.003-0.65-0.103-0.768-0.269c-0.155-0.219,0-1.074,0-1.074L43.863,72.874z"/>
			<path fill="#414042" d="M48.958,73.473c0.022,0.089-0.147,0.247-0.23,0.287c-0.281,0.136-0.937,0.028-1.247,0
				c-0.199-0.018-0.787-0.028-0.787-0.028s-0.757,0.08-0.92-0.087c-0.141-0.142,0.134-0.671,0.134-0.671l1.558-0.407
				c0,0,0.555,0.474,0.764,0.597C48.399,73.264,48.909,73.281,48.958,73.473z"/>
			<path fill="#231F20" d="M47.538,63.206l0.134,3.665l-0.134,4.951c0,0-0.298,0.323-0.289,0.458
				c0.008,0.119,0.307,0.367,0.307,0.367s-0.512,0.479-0.748,0.571c-0.269,0.104-1.152,0.119-1.152,0.119s0.155-0.718,0.135-0.959
				c-0.01-0.11-0.151-0.313-0.135-0.422c0.011-0.075,0.173-0.25,0.173-0.25l-0.173-3.665L45.619,66.2v-1.67l-0.792-0.019
				l-0.302,3.952l-0.48,2.284l-0.364,1.247c0,0,0.216,0.406,0.23,0.557c0.015,0.146-0.115,0.575-0.115,0.575
				s-0.544-0.052-0.729-0.034c-0.171,0.017-0.633,0.149-0.633,0.149s-0.265-0.537-0.249-0.729c0.012-0.152,0.288-0.538,0.288-0.538
				l0.115-2.705l0.096-3.857l0.039-2.11l3.3-0.884L47.538,63.206z"/>
			<path fill="#58595B" d="M46.175,55.337c0,0,1.349,0.623,1.65,1.017c0.465,0.607,0.449,2.175,0.749,2.878
				c0.05,0.118,0.25,0.301,0.288,0.423c0.052,0.169,0.065,0.545,0,0.709c-0.067,0.172-0.331,0.465-0.499,0.538
				c-0.14,0.062-0.459,0-0.614,0c-0.087,0-0.345,0-0.345,0l0.192,1.113l0.288,1.7l-1.582,0.114l-0.422-1.083l-0.434,1.103
				l-2.931-0.096l0.533-2.929c0,0-0.474-1.429-0.576-1.918c-0.083-0.397-0.053-1.207-0.077-1.612c-0.016-0.259-0.132-0.813,0-1.036
				c0.198-0.335,0.925-0.53,1.247-0.748c0.211-0.145,0.787-0.652,0.787-0.652l1.081,1.378L46.175,55.337z"/>
			<path fill="#FFFFFF" d="M46.175,55.337c0,0,0.082,0.943,0.061,1.218c-0.045,0.58-0.42,2.182-0.42,2.182s-0.513-1.636-0.734-2.162
				c-0.135-0.319-0.536-0.902-0.625-1.237c-0.032-0.117-0.027-0.479-0.027-0.479l0.225-0.189l0.965,0.954l0.482-0.585L46.175,55.337
				z"/>
			<path fill="#231F20" d="M44.429,54.858l-0.787,0.532l0.787,0.845l-0.462,0.313c0,0,0.69,0.831,0.911,1.115
				c0.249,0.32,0.965,1.202,0.965,1.202s-0.491-1.627-0.718-2.182c-0.128-0.313-0.521-0.879-0.619-1.202
				C44.456,55.312,44.429,54.858,44.429,54.858z"/>
			<polygon fill="#414042" points="43.232,56.683 43.735,57.784 43.926,59.511 43.668,59.933 44.927,60.218 45.449,60.151 
				46.088,59.347 47.081,59.226 47.672,58.614 47.712,57.649 47.788,56.955 47.081,58.451 46.462,59.05 44.429,58.968 43.94,57.635 
							"/>
			<polygon fill="#DD625B" points="45.934,55.949 45.619,55.622 45.307,55.976 45.536,56.365 45.36,57.093 45.449,57.594 
				45.843,58.865 46.162,57.02 45.795,56.379 			"/>
			<polygon fill="#FFA969" points="47.081,59.226 47.542,58.628 48.082,58.451 48.303,58.999 48.023,59.39 			"/>
			<polygon fill="#FFA969" points="45.68,59.39 45.517,60.07 45.027,60.07 44.13,59.485 44.13,59.104 44.81,59.104 			"/>
			<polygon fill="#414042" points="42.794,62.559 42.971,61.349 42.953,61.349 43.047,60.824 43.668,61.116 46.007,60.902 
				46.007,60.586 47.403,60.902 47.672,62.192 47.883,63.715 47.788,63.723 47.536,62.866 47.115,61.219 45.843,61.349 
				43.772,61.349 43.465,61.668 43.026,63.77 42.515,63.753 			"/>
			<path fill="#231F20" d="M46.101,55.037l0.912,0.612L46.7,56.466l0.38,0.081c0,0-0.252,0.861-0.401,1.149
				c-0.164,0.316-0.836,1.176-0.836,1.176s0.307-1.82,0.332-2.434C46.19,56.088,46.101,55.037,46.101,55.037z"/>
			<polygon fill="#8BD2CA" points="46.088,59.324 46.02,60.412 45.395,60.344 45.619,59.324 			"/>
		</g>
	</g>
	<g>
		<g>
			<path fill="#FFF9FF" d="M60.21,64.558l-3.44,1.155v4.33c0,0.876,1.167,1.587,2.605,1.587c1.439,0,2.605-0.711,2.605-1.587v-4.33
				L60.21,64.558z"/>
			<ellipse fill="#FFF9FF" cx="59.375" cy="65.713" rx="2.605" ry="1.587"/>
			<path fill="#A04A58" d="M57.157,66.546c0.459,0.453,1.28,0.754,2.218,0.754s1.759-0.301,2.218-0.754
				c0.032-0.092,0.048-0.188,0.048-0.285c0-0.763-1.014-1.381-2.266-1.381c-1.251,0-2.266,0.618-2.266,1.381
				C57.109,66.359,57.125,66.454,57.157,66.546z"/>
		</g>
		<path fill="#BCBACE" d="M59.375,64.309c1.313,0,2.423,0.644,2.423,1.404c0,0.762-1.11,1.404-2.423,1.404s-2.422-0.643-2.422-1.404
			C56.953,64.952,58.062,64.309,59.375,64.309 M59.375,64.126c-1.438,0-2.605,0.711-2.605,1.587c0,0.877,1.167,1.587,2.605,1.587
			c1.439,0,2.605-0.71,2.605-1.587C61.98,64.837,60.814,64.126,59.375,64.126L59.375,64.126z"/>
		<g>
			<path fill="#FFF9FF" d="M61.597,67.463l-0.095-0.056v0.003L61.5,67.409v0.001H61.5v0.001l-0.002-0.001v0.002l-0.001-0.001v0.002
				l-0.001-0.001v0.002l-0.001-0.001v0.002l-0.001-0.001v0.002l-0.001-0.001v0.001h-0.001v0.001l-0.001-0.001v0.002l-0.001-0.001
				v0.002l-0.001-0.001v0.002l-0.002-0.001v0.002l-0.001-0.002v0.003l-0.001-0.001v0.002l-0.001-0.001v0.001h-0.001v0.001
				l-0.002-0.001v0.002l-0.001-0.001v0.001h-0.001v0.001l-0.001-0.001v0.003l-0.001-0.002v0.003l-0.001-0.001v0.001h-0.001v0.001
				l-0.001-0.001v0.002l-0.001-0.001v0.002l-0.001-0.001v0.001H61.46v0.002l-0.001-0.002v0.002h-0.002v0.001l-0.001-0.001v0.002
				l-0.001-0.001v0.002l-0.001-0.001v0.002l-0.001-0.001v0.002l-0.002-0.001v0.001h-0.001v0.002l-0.001-0.002v0.002h-0.001v0.001
				l-0.001-0.001v0.002l-0.001-0.001v0.002l-0.001-0.001v0.002l-0.001-0.001v0.001h-0.002v0.002l-0.001-0.002v0.002h-0.002v0.001
				l-0.001-0.001v0.002l-0.001-0.001v0.002l-0.001-0.001v0.002l-0.001-0.001v0.001h-0.001v0.001l-0.001-0.001v0.003l-0.001-0.002
				v0.002l-0.001-0.001v0.002l-0.001-0.001v0.002l-0.001-0.001v0.002l-0.001-0.001v0.002l-0.001-0.002v0.002h-0.001v0.002
				l-0.001-0.002v0.002h-0.002v0.001l-0.001-0.001v0.002l-0.002-0.001v0.002l-0.001-0.001v0.001h-0.002v0.001l-0.001-0.001v0.002
				l-0.001-0.001v0.002l-0.001-0.001v0.002L61.4,67.465v0.002l-0.001-0.001v0.002l-0.001-0.001v0.001h-0.001v0.001l-0.002-0.001
				v0.002l-0.001-0.001v0.003l-0.002-0.002v0.002l-0.001-0.001v0.002l-0.001-0.001v0.002l-0.002-0.001v0.002l-0.001-0.001v0.001
				h-0.002v0.001l-0.001-0.001v0.002l-0.002-0.001v0.002l-0.001-0.001v0.002l-0.001-0.001v0.002l-0.001-0.001v0.002l-0.001-0.001
				v0.001h-0.001v0.001l-0.001-0.001v0.002l-0.001-0.001v0.002l-0.001-0.001v0.002l-0.001-0.001v0.002l-0.002-0.001v0.002
				l-0.001-0.001v0.001h-0.001v0.001l-0.001-0.001v0.002l-0.001-0.001v0.002l-0.002-0.001v0.002l-0.001-0.001v0.002l-0.001-0.001
				v0.002l-0.001-0.001v0.002l-0.001-0.001v0.001h-0.001v0.001l-0.001-0.001v0.002l-0.001-0.001v0.002l-0.001-0.001v0.002
				l-0.001-0.001v0.002l-0.002-0.001v0.001h-0.001V67.5l-0.002-0.002V67.5l-0.001-0.001v0.002L61.337,67.5v0.002l-0.001-0.001v0.002
				l-0.001-0.001v0.002l-0.001-0.001v0.002l-0.001-0.001v0.001H61.33v0.001l-0.001-0.001v0.002l-0.001-0.001v0.002l-0.001-0.001
				v0.002l-0.001-0.001v0.002l-0.001-0.001v0.002l-0.001-0.001v0.001H61.32v0.001l-0.002-0.001v0.002l-0.001-0.001v0.002
				l-0.002-0.001v0.002l-0.001-0.001v0.002l-0.001-0.001v0.002l-0.001-0.001v0.002l-0.001-0.001v0.001l-0.001-0.001v0.002
				l-0.001-0.001v0.002l-0.001-0.001v0.002l-0.001-0.001v0.002l-0.001-0.001v0.002L61.3,67.522v0.002l-0.001-0.001v0.001h-0.001
				v0.001l-0.001-0.001v0.002l-0.001-0.001v0.002l-0.001-0.001v0.001h-0.001v0.002l-0.002-0.002v0.003l-0.001-0.001v0.001h-0.002
				v0.001l-0.001-0.001v0.002l-0.001-0.001v0.002l-0.001-0.001v0.002l-0.001-0.001v0.002l-0.001-0.001v0.002l-0.001-0.001v0.002
				l-0.001-0.001v0.001h-0.002v0.001l-0.001-0.001v0.002l-0.001-0.001v0.002l-0.001-0.001v0.001h-0.001v0.002l-0.002-0.002v0.002
				h-0.001v0.001l-0.001-0.001v0.002l-0.001-0.001v0.002l-0.002-0.001v0.002l-0.001-0.001v0.001h-0.001v0.002l-0.001-0.002v0.002
				h-0.001v0.001l-0.001-0.001v0.002l-0.001-0.001v0.002l-0.001-0.001v0.002l-0.002-0.001v0.002l-0.001-0.001v0.001h-0.002v0.002
				l-0.001-0.002v0.002h-0.001v0.001l-0.001-0.001v0.002l-0.001-0.001v0.002l-0.001-0.001v0.002l-0.001-0.001v0.001h-0.001v0.002
				l-0.001-0.002v0.002h-0.001v0.001l-0.001-0.001v0.002l-0.001-0.001v0.002l-0.001-0.001v0.002l-0.002-0.001v0.002l-0.001-0.001
				v0.001h-0.002v0.001l-0.001-0.001v0.002l-0.002-0.001v0.002l-0.001-0.001v0.002l-0.001-0.001v0.002l-0.001-0.001v0.001h-0.001
				v0.001l-0.001-0.001v0.003l-0.001-0.002v0.002H61.21v0.001l-0.002-0.001v0.002l-0.001-0.001v0.002l-0.001-0.001v0.001h-0.002
				v0.001l-0.001-0.001v0.002l-0.002-0.001v0.002L61.2,67.577v0.002l-0.002-0.001v0.002l-0.001-0.001v0.002l-0.001-0.001v0.002
				l-0.001-0.001v0.001h-0.001v0.001l-0.001-0.001v0.002l-0.001-0.001v0.002l-0.001-0.001v0.002l-0.001-0.001v0.002l-0.001-0.001
				v0.002l-0.001-0.001v0.001h-0.001v0.001l-0.001-0.001v0.002l-0.001-0.001v0.002l-0.001-0.001v0.002l-0.002-0.001v0.002
				l-0.001-0.001v0.002l-0.002-0.001v0.001h-0.001v0.001l-0.002-0.001v0.002l-0.001-0.001v0.002l-0.001-0.001v0.002l-0.001-0.001
				v0.002l-0.001-0.001V67.6l-0.001-0.001v0.002L61.161,67.6v0.001H61.16v0.001l-0.002-0.001v0.002l-0.001-0.001v0.002l-0.002-0.001
				v0.002l-0.001-0.001v0.002l-0.002-0.001v0.001H61.15v0.001l-0.001-0.001v0.002l-0.002-0.001v0.002l-0.001-0.001v0.002
				l-0.001-0.001v0.002l-0.001-0.001v0.002l-0.001-0.001v0.002l-0.001-0.001v0.001l-0.001-0.001v0.002l-0.001-0.001v0.002
				l-0.002-0.001v0.002l-0.001-0.001v0.002l-0.002-0.001v0.002l-0.001-0.001v0.002l-0.002-0.001v0.001h-0.001v0.001l-0.001-0.001
				v0.002l-0.001-0.001v0.002l-0.001-0.001v0.002l-0.001-0.001v0.002l-0.001-0.001v0.002l-0.001-0.001v0.001h-0.001v0.001
				l-0.001-0.001v0.002l-0.001-0.001v0.002l-0.001-0.001v0.002l-0.001-0.001v0.002l-0.001-0.001v0.002l-0.001-0.001v0.002
				l-0.002-0.001v0.001l-0.001-0.001v0.002l-0.002-0.001v0.002l-0.001-0.001v0.002l-0.002-0.001v0.001H61.1v0.002l-0.001-0.002
				v0.003l-0.001-0.001v0.001h-0.001v0.001l-0.001-0.001v0.002l-0.001-0.001v0.002l-0.001-0.001v0.001h-0.002v0.002l-0.001-0.002
				v0.003l-0.001-0.001v0.002l-0.002-0.001v0.001h-0.001v0.001l-0.002-0.001v0.002l-0.001-0.001v0.001h-0.002v0.002l-0.001-0.002
				v0.003l-0.001-0.001v0.001h-0.001v0.001l-0.001-0.001v0.002l-0.001-0.001v0.002l-0.001-0.001v0.002l-0.001-0.001v0.001h-0.001
				v0.002l-0.001-0.002v0.002h-0.001v0.001l-0.001-0.001v0.002l-0.002-0.001v0.002l-0.001-0.001v0.002l-0.002-0.001v0.002
				l-0.001-0.001v0.002l-0.001-0.002v0.003l-0.001-0.001v0.001h-0.001v0.44c0.442,0.297,0.712,0.799,0.712,1.336
				c0,0.17-0.059,0.329-0.163,0.454c-0.033,0.005-0.066,0.007-0.099,0.007V69.9c0,0-0.001,0-0.001,0v0.001c0,0,0,0-0.001,0v0.001
				c-0.001,0-0.001,0-0.002,0v0.001c0,0-0.001,0-0.001,0v0.001c0,0-0.001,0-0.001,0l0,0c0,0-0.001,0-0.001,0v0.001
				c0,0-0.001,0-0.001,0v0.001c0,0-0.001,0-0.001,0v0.001c0,0-0.001,0-0.001,0v0.001c0,0-0.001,0-0.001,0v0.001c0,0-0.001,0-0.001,0
				v0.001c0,0-0.001,0-0.001,0l0,0c0,0-0.001,0-0.002,0v0.001c0,0,0,0-0.001,0v0.001c0,0-0.001,0-0.001,0v0.001
				c-0.001,0-0.001,0-0.001,0v0.001c0,0-0.001,0-0.001,0v0.001c-0.001,0-0.001,0-0.002,0v0.001c0,0-0.001,0-0.001,0l0,0
				c0,0-0.001,0-0.001,0v0.001c0,0-0.001,0-0.001,0v0.001c0,0-0.001,0-0.001,0v0.001c0,0-0.001,0-0.001,0v0.001c0,0-0.001,0-0.001,0
				v0.001c0,0-0.001,0-0.001,0v0.001c0,0-0.001,0-0.001,0v0.001c-0.001,0-0.001,0-0.001,0l0,0c0,0-0.001,0-0.001,0v0.001
				c0,0-0.001,0-0.001,0v0.001c0,0-0.001,0-0.002,0v0.001c0,0,0,0-0.001,0l0,0c0,0,0,0-0.001,0v0.002c0,0-0.001,0-0.001,0v0.001
				c0,0-0.001,0-0.001,0l0,0c-0.001,0-0.001,0.001-0.002,0.001l0,0c0,0-0.001,0-0.001,0v0.001c0,0-0.001,0-0.001,0v0.001
				c0,0-0.001,0-0.001,0v0.001c0,0-0.001,0-0.001,0v0.001c0,0-0.001,0-0.001,0l0,0c0,0-0.001,0-0.001,0v0.001
				c0,0-0.001,0.001-0.001,0.001l0,0c0,0-0.001,0-0.002,0v0.001c0,0,0,0-0.001,0v0.001c0,0-0.001,0-0.002,0v0.001
				c0,0-0.001,0-0.001,0l0,0c0,0-0.001,0-0.001,0v0.002c0,0,0,0-0.001,0l0,0c0,0,0,0-0.001,0v0.001c0,0-0.001,0-0.001,0v0.001
				c0,0-0.001,0-0.001,0v0.001c0,0-0.001,0-0.001,0v0.001c0,0-0.001,0-0.001,0l0,0c0,0-0.001,0-0.001,0v0.002c0,0-0.001,0-0.001,0
				l0,0c0,0-0.001,0.001-0.001,0.001l0,0c0,0-0.001,0-0.001,0v0.001c-0.001,0-0.001,0-0.001,0v0.001c0,0-0.001,0-0.001,0v0.001
				c-0.001,0-0.001,0-0.002,0v0.001c0,0,0,0-0.001,0l0,0c0,0-0.001,0-0.002,0v0.002c0,0-0.001,0-0.001,0l0,0c0,0-0.001,0-0.002,0
				v0.001c0,0-0.001,0-0.001,0v0.001c0,0-0.001,0-0.001,0v0.001c0,0-0.001,0-0.001,0v0.001c0,0-0.001,0-0.001,0l0,0
				c0,0-0.001,0-0.001,0v0.002c0,0-0.001,0-0.001,0l0,0c0,0-0.001,0-0.001,0v0.001c0,0-0.001,0-0.002,0v0.001c0,0,0,0-0.001,0v0.001
				c0,0-0.001,0-0.002,0l0,0c0,0,0,0.001-0.001,0.001l0,0c0,0-0.001,0-0.001,0v0.002c0,0-0.001,0-0.002,0l0,0
				c0,0,0,0.001-0.001,0.001l0,0c-0.001,0-0.001,0-0.002,0v0.001c0,0-0.001,0-0.001,0v0.001c0,0-0.001,0-0.002,0v0.001
				c0,0-0.001,0-0.001,0l0,0c0,0-0.001,0-0.001,0v0.001c0,0-0.001,0-0.001,0v0.002c0,0-0.001,0-0.001,0l0,0c0,0-0.001,0-0.001,0
				v0.001c0,0-0.001,0-0.001,0v0.001c0,0-0.001,0-0.001,0v0.001c0,0-0.001,0-0.001,0l0,0c0,0-0.001,0-0.001,0v0.001
				c0,0-0.001,0-0.002,0v0.002c0,0-0.001,0-0.001,0l0,0c0,0,0,0-0.001,0v0.001c0,0-0.001,0-0.001,0v0.001c0,0,0,0-0.001,0v0.001
				c-0.001,0-0.001,0-0.002,0v0.001c0,0-0.001,0-0.001,0l0,0c0,0-0.001,0-0.001,0v0.001c0,0-0.001,0-0.001,0v0.001
				c0,0-0.001,0-0.001,0v0.001c0,0-0.001,0-0.001,0v0.001c0,0-0.001,0-0.001,0v0.001c0,0-0.001,0-0.001,0v0.001
				c-0.001,0-0.001,0-0.001,0l0,0c0,0-0.001,0-0.001,0v0.001c0,0-0.001,0-0.002,0v0.001c0,0,0,0-0.001,0v0.001c0,0-0.001,0-0.002,0
				v0.001c0,0-0.001,0-0.001,0v0.001c0,0-0.001,0-0.002,0v0.001c0,0-0.001,0-0.001,0l0,0c0,0-0.001,0-0.001,0v0.001
				c0,0-0.001,0-0.001,0v0.001c0,0-0.001,0-0.001,0v0.001c-0.001,0-0.001,0-0.002,0v0.001c0,0-0.001,0-0.001,0v0.001
				c0,0-0.001,0-0.001,0v0.001c0,0-0.001,0-0.001,0v0.001c0,0-0.001,0-0.001,0l0,0c0,0-0.001,0-0.001,0V70c0,0-0.001,0-0.001,0
				v0.001c0,0-0.001,0-0.001,0v0.001c-0.001,0-0.001,0-0.002,0v0.001c0,0,0,0-0.001,0v0.001c0,0-0.001,0-0.002,0l0,0
				c0,0-0.001,0-0.001,0v0.001c0,0-0.001,0-0.001,0v0.001c0,0-0.001,0-0.001,0v0.001c0,0,0,0-0.001,0v0.001c0,0-0.001,0-0.001,0
				v0.001c0,0-0.001,0-0.001,0v0.001c0,0-0.001,0-0.001,0v0.001c0,0-0.001,0-0.001,0l0,0c0,0-0.001,0-0.001,0v0.001
				c0,0-0.001,0-0.001,0v0.001c0,0-0.001,0-0.001,0v0.001c0,0-0.001,0-0.001,0v0.001c-0.001,0-0.001,0-0.001,0v0.001
				c0,0-0.001,0-0.001,0v0.001c-0.001,0-0.001,0-0.001,0l0,0c0,0-0.001,0-0.001,0v0.001c0,0-0.001,0-0.002,0v0.001
				c0,0-0.001,0-0.001,0v0.001c-0.001,0-0.001,0-0.002,0v0.001c0,0-0.001,0-0.001,0v0.001c0,0-0.001,0-0.001,0v0.001
				c0,0-0.001,0-0.001,0l0,0c0,0-0.001,0-0.001,0v0.001c0,0-0.001,0-0.001,0v0.001c0,0-0.001,0-0.001,0v0.001c0,0-0.001,0-0.001,0
				v0.001c0,0-0.001,0-0.002,0v0.001c0,0,0,0-0.001,0v0.001c0,0,0,0-0.001,0v0.001c0,0,0,0-0.001,0l0,0c-0.001,0-0.001,0-0.001,0
				v0.001c-0.001,0-0.001,0-0.002,0v0.001c0,0,0,0-0.001,0l0,0c0,0-0.001,0.001-0.001,0.001v0.001c0,0-0.001,0-0.001,0v0.001
				c-0.001,0-0.001,0-0.002,0v0.001c0,0-0.001,0-0.001,0l0,0c0,0-0.001,0-0.001,0v0.001c0,0-0.001,0-0.001,0v0.001
				c0,0-0.001,0-0.001,0v0.001c0,0-0.001,0-0.001,0l0,0c0,0-0.001,0-0.001,0v0.002c0,0-0.001,0-0.001,0v0.001c0,0-0.001,0-0.002,0
				l0,0c0,0,0,0-0.001,0v0.001c0,0-0.001,0-0.002,0v0.001c0,0-0.001,0-0.001,0v0.001c0,0-0.001,0-0.001,0v0.001c0,0-0.001,0-0.001,0
				v0.001c0,0-0.001,0-0.001,0v0.001c0,0-0.001,0-0.001,0l0,0c0,0-0.001,0-0.001,0v0.001c0,0-0.001,0-0.001,0v0.001
				c0,0-0.001,0-0.001,0v0.001c-0.001,0-0.001,0-0.001,0v0.001c0,0-0.001,0-0.001,0l0,0c0,0-0.001,0-0.001,0v0.002
				c0,0-0.001,0-0.001,0l0,0c0,0-0.001,0-0.002,0v0.001c0,0,0,0-0.001,0v0.001c0,0-0.001,0-0.002,0v0.001h-0.001v0.001
				c0,0-0.001,0-0.002,0l0,0c0,0-0.001,0-0.001,0v0.002c0,0-0.001,0-0.001,0l0,0c0,0-0.001,0.001-0.001,0.001l0,0
				c0,0-0.001,0-0.001,0v0.001c0,0-0.001,0-0.001,0v0.001c0,0-0.001,0-0.001,0v0.001c0,0-0.001,0-0.001,0v0.001c0,0-0.001,0-0.002,0
				l0,0c0,0,0,0-0.001,0v0.002c0,0-0.001,0-0.001,0l0,0c0,0-0.001,0-0.002,0v0.001c0,0,0,0-0.001,0v0.001c0,0-0.001,0-0.002,0v0.001
				c0,0,0,0-0.001,0v0.001c0,0-0.001,0-0.002,0l0,0c0,0-0.001,0.001-0.001,0.001v0.001c0,0-0.001,0-0.001,0l0,0c0,0-0.001,0-0.001,0
				v0.001c0,0-0.001,0-0.001,0v0.001c0,0-0.001,0-0.001,0v0.001c0,0-0.001,0-0.001,0l0,0c0,0-0.001,0-0.001,0v0.001
				c0,0-0.001,0-0.001,0v0.002c0,0-0.001,0-0.001,0v0.001c0,0-0.001,0-0.001,0l0,0c0,0-0.001,0-0.001,0v0.001c0,0-0.001,0-0.001,0
				v0.001c-0.001,0-0.001,0-0.001,0v0.001c0,0-0.001,0-0.001,0l0,0c-0.001,0-0.001,0-0.002,0v0.001c0,0-0.001,0-0.001,0v0.001
				c-0.001,0-0.001,0-0.002,0v0.001c0,0-0.001,0-0.001,0v0.001c0,0-0.001,0-0.002,0v0.001c0,0-0.001,0-0.001,0v0.001
				c0,0-0.001,0-0.001,0l0,0c0,0-0.001,0.001-0.001,0.001l0,0c0,0-0.001,0-0.001,0v0.002c0,0-0.001,0-0.001,0l0,0
				c0,0-0.001,0-0.001,0v0.001c0,0-0.001,0-0.001,0v0.001c0,0-0.001,0-0.002,0v0.001c0,0,0,0-0.001,0l0,0
				c0,0-0.001,0.001-0.002,0.001l0,0c0,0-0.001,0-0.001,0v0.001c0,0-0.001,0-0.002,0v0.001c0,0-0.001,0-0.001,0v0.001
				c0,0,0,0-0.001,0v0.001c-0.001,0-0.001,0-0.002,0v0.001c0,0-0.001,0-0.001,0V70.1c0,0-0.001,0-0.001,0l0,0c0,0-0.001,0-0.001,0
				v0.001c0,0-0.001,0-0.001,0v0.001c0,0-0.001,0-0.001,0v0.001c0,0-0.001,0-0.001,0v0.001c0,0-0.001,0-0.001,0v0.001
				c-0.001,0-0.001,0-0.002,0v0.001c0,0,0,0-0.001,0l0,0c0,0-0.001,0.001-0.002,0.001l0,0c0,0,0,0-0.001,0v0.001
				c0,0-0.001,0-0.002,0v0.001c0,0-0.001,0-0.001,0v0.001c0,0,0,0-0.001,0v0.001c0,0-0.001,0-0.001,0l0,0c0,0-0.001,0-0.001,0v0.001
				c0,0-0.001,0-0.001,0v0.001c0,0-0.001,0-0.001,0v0.001c0,0-0.001,0-0.001,0v0.001c0,0-0.001,0-0.001,0v0.001c0,0-0.001,0-0.001,0
				v0.001c0,0-0.001,0-0.001,0v0.001c-0.001,0-0.001,0-0.001,0l0,0c0,0-0.001,0-0.001,0v0.001c-0.001,0-0.001,0-0.001,0v0.001
				c0,0-0.001,0-0.001,0v0.001c-0.001,0-0.001,0-0.002,0v0.001c0,0,0,0-0.001,0v0.001c-0.001,0-0.001,0-0.002,0v0.001
				c0,0-0.001,0-0.001,0l0,0c0,0-0.001,0.001-0.002,0.001l0,0c0,0-0.001,0-0.001,0v0.001c0,0-0.001,0-0.001,0v0.001
				c0,0-0.001,0-0.001,0v0.001c0,0-0.001,0-0.001,0v0.001c0,0-0.001,0-0.001,0v0.001c0,0-0.001,0-0.001,0v0.001c0,0-0.001,0-0.001,0
				l0,0c0,0-0.001,0-0.002,0v0.001c0,0,0,0-0.001,0v0.001c0,0-0.001,0-0.001,0v0.001c-0.001,0-0.001,0-0.002,0v0.001
				c0,0,0,0-0.001,0v0.001c-0.001,0-0.001,0-0.002,0v0.001c0,0,0,0-0.001,0l0,0c-0.001,0-0.001,0-0.002,0v0.001c0,0-0.001,0-0.001,0
				v0.001c0,0-0.001,0-0.001,0v0.001c0,0-0.001,0-0.001,0v0.001c0,0-0.001,0-0.001,0v0.001c0,0-0.001,0-0.001,0v0.001
				c0,0-0.001,0-0.001,0v0.001c0,0-0.001,0-0.001,0l0,0c0,0-0.001,0-0.001,0v0.001c0,0-0.001,0-0.001,0v0.001c0,0-0.001,0-0.001,0
				v0.001c0,0-0.001,0-0.001,0v0.001c0,0-0.001,0-0.002,0v0.001c0,0-0.001,0-0.001,0v0.001c0,0-0.001,0-0.002,0l0,0
				c0,0-0.001,0-0.001,0v0.001c0,0-0.001,0-0.001,0v0.001c0,0-0.001,0-0.001,0v0.001c0,0-0.001,0-0.001,0v0.378
				c0.187,0,0.375-0.049,0.545-0.148c0,0,0,0,0,0c0,0,0.001,0,0.001,0s0,0,0-0.001c0,0,0.001,0,0.001,0l0,0
				c0,0,0.001-0.001,0.001-0.001h0c0-0.001,0-0.001,0.001-0.001h0c0,0,0.001-0.001,0.001-0.001c0,0,0,0,0,0
				c0,0,0.001-0.001,0.001-0.001c0,0,0,0,0,0c0,0,0,0,0.001-0.001l0,0c0,0,0.001,0,0.001,0l0-0.001c0,0,0,0,0.001,0c0,0,0,0,0,0
				c0-0.001,0-0.001,0-0.001c0,0,0.001-0.001,0.001-0.001s0,0,0.001,0h0c0-0.001,0-0.001,0.001-0.001s0,0,0,0
				c0,0,0-0.001,0.001-0.001h0c0,0,0,0,0.001,0l0-0.001c0,0,0.001,0,0.001,0c0,0,0-0.001,0-0.001c0,0,0,0,0.001,0h0
				c0-0.001,0.001-0.001,0.001-0.001c0,0,0,0,0,0c0,0,0,0,0.001-0.001h0c0-0.001,0.001-0.001,0.001-0.001l0,0
				c0,0,0.001-0.001,0.001-0.001c0,0,0,0,0,0c0,0,0.001,0,0.001,0c0-0.001,0-0.001,0-0.001c0,0,0.001,0,0.001,0c0,0,0,0,0-0.001
				c0,0,0.001,0,0.001,0c0,0,0,0,0-0.001c0,0,0,0,0.001,0l0,0c0-0.001,0.001-0.001,0.001-0.001c0,0,0,0,0,0c0,0,0,0,0.001-0.001
				c0,0,0,0,0,0l0.001-0.001h0c0,0,0,0,0.001-0.001h0c0,0,0,0,0.001,0s0-0.001,0-0.001c0,0,0,0,0.001,0c0,0,0,0,0,0
				c0-0.001,0-0.001,0.001-0.001s0,0,0,0c0-0.001,0.001-0.001,0.001-0.001h0c0,0,0.001-0.001,0.001-0.001h0
				c0-0.001,0.001-0.001,0.001-0.001c0,0,0,0,0,0c0,0,0.001-0.001,0.001-0.001c0,0,0.001,0,0.001,0s0,0,0.001-0.001l0,0
				c0,0,0.001,0,0.001,0c0,0,0,0,0-0.001c0,0,0.001,0,0.001,0c0,0,0,0,0,0c0,0,0,0,0.001-0.001l0,0c0,0,0.001-0.001,0.001-0.001h0
				c0-0.001,0-0.001,0.001-0.001l0,0c0,0,0.001-0.001,0.001-0.001h0c0,0,0,0,0.001-0.001c0,0,0,0,0,0c0,0,0,0,0.001,0
				c0,0,0,0,0-0.001c0,0,0,0,0.001,0h0c0-0.001,0.001-0.001,0.001-0.001c0,0,0,0,0,0c0,0,0,0,0.001-0.001h0c0,0,0,0,0.001,0v-0.001
				c0-0.001,0.001-0.001,0.001-0.001h0c0,0,0,0,0.001-0.001l0,0c0,0,0.001,0,0.001,0c0,0,0-0.001,0-0.001c0,0,0.001,0,0.001,0
				s0,0,0.001,0c0-0.001,0-0.001,0.001-0.001l0,0c0,0,0.001-0.001,0.001-0.001c0,0,0,0,0.001,0s0,0,0.001,0c0-0.001,0-0.001,0-0.001
				c0,0,0-0.001,0.001-0.001l0,0c0,0,0.001-0.001,0.001-0.001c0,0,0,0,0,0c0,0,0,0,0.001-0.001l0,0c0.001,0,0.001,0,0.001,0
				c0,0,0,0,0-0.001c0,0,0,0,0.001,0h0c0-0.001,0.001-0.001,0.001-0.001c0,0,0,0,0,0c0,0,0.001,0,0.001,0c0-0.001,0-0.001,0-0.001
				c0,0,0.001,0,0.001,0c0,0,0,0,0-0.001c0,0,0,0,0.001-0.001h0c0,0,0.001,0,0.001-0.001l0,0c0,0,0.001,0,0.001,0c0,0,0,0,0-0.001
				c0,0,0.001,0,0.001,0c0,0,0,0,0,0c0-0.001,0-0.001,0.001-0.001l0,0c0,0,0.001,0,0.001-0.001h0c0,0,0,0,0.001,0v-0.001
				c0,0,0.001,0,0.001-0.001h0c0,0,0,0,0.001,0c0,0,0-0.001,0-0.001c0,0,0,0,0.001,0h0c0-0.001,0-0.001,0.001-0.001h0
				c0-0.001,0-0.001,0.001-0.001l0,0c0.001,0,0.001-0.001,0.001-0.001s0,0,0,0c0,0,0,0,0.001,0c0-0.001,0-0.001,0-0.001s0,0,0.001,0
				h0c0-0.001,0.001-0.001,0.001-0.002h0c0,0,0.001,0,0.001,0c0,0,0,0,0-0.001c0,0,0.001,0,0.001,0c0,0,0,0,0,0
				c0-0.001,0.001-0.001,0.001-0.001c0,0,0,0,0,0c0-0.001,0-0.001,0-0.001c0,0,0,0,0,0c0,0,0.001,0,0.001-0.001c0,0,0,0,0,0h0
				c0-0.001,0-0.001,0-0.001c0,0,0.001,0,0.001-0.001h0c0,0,0,0,0.001,0l0,0c0-0.001,0.001-0.001,0.001-0.001c0,0,0,0,0,0
				c0-0.001,0-0.001,0.001-0.001h0c0,0,0,0,0.001-0.001h0c0,0,0,0,0.001-0.001h0c0,0,0,0,0.001,0s0-0.001,0-0.001
				c0,0,0.001,0,0.001,0c0,0,0,0,0,0c0-0.001,0-0.001,0.001-0.001c0-0.001,0-0.001,0-0.001c0,0,0.001,0,0.001,0l0,0
				c0-0.001,0.001-0.001,0.001-0.001h0c0,0,0.001-0.001,0.001-0.001c0,0,0,0,0,0c0,0,0.001,0,0.001-0.001c0,0,0,0,0,0
				c0,0,0.001,0,0.001,0c0,0,0,0,0-0.001c0,0,0.001,0,0.001,0c0,0,0,0,0-0.001c0.001,0,0.001,0,0.001-0.001c0,0,0,0,0,0
				c0,0,0,0,0.001,0c0,0,0-0.001,0-0.001s0,0,0.001,0c0,0,0,0,0,0c0-0.001,0-0.001,0.001-0.001l0,0c0,0,0.001,0,0.001-0.001h0
				c0,0,0,0,0.001,0l0-0.001h0.001c0,0,0,0,0,0c0-0.001,0.001-0.002,0.001-0.002h0c0,0,0,0,0.001,0c0,0,0-0.001,0.001-0.001h0h0
				c0-0.001,0-0.001,0.001-0.001h0c0,0,0.001,0,0.001-0.001h0c0,0,0.001,0,0.001,0c0-0.001,0-0.001,0-0.001c0,0,0.001,0,0.001,0
				c0,0,0,0,0,0c0-0.001,0-0.001,0-0.001c0,0,0.001,0,0.001,0s0-0.001,0.001-0.001l0,0c0-0.001,0.001-0.001,0.001-0.001
				c0,0,0,0,0-0.001c0,0,0.001,0,0.001,0c0,0,0,0,0,0c0,0,0-0.001,0.001-0.001c0,0,0,0,0,0s0,0,0.001-0.001h0c0,0,0,0,0.001,0
				c0,0,0,0,0-0.001c0,0,0.001,0,0.001,0c0,0,0,0,0,0c0,0,0-0.001,0.001-0.001c0,0,0-0.001,0-0.001h0.001c0,0,0,0,0,0
				c0-0.001,0-0.001,0.001-0.001h0c0-0.001,0.001-0.001,0.001-0.001c0,0,0,0,0,0c0,0,0.001,0,0.001-0.001h0c0,0,0.001,0,0.001,0
				c0-0.001,0-0.001,0-0.001c0,0,0.001,0,0.001,0l0,0c0-0.001,0.001-0.001,0.001-0.001l0,0c0,0,0.001-0.001,0.001-0.001
				c0,0,0,0,0-0.001c0,0,0.001,0,0.001,0c0,0,0,0,0,0c0,0,0.001,0,0.001-0.001c0,0,0,0,0,0c0,0,0,0,0.001-0.001h0c0,0,0,0,0.001,0
				c0-0.001,0-0.001,0-0.001c0,0,0.001,0,0.001,0c0,0,0,0,0,0c0-0.001,0-0.001,0.001-0.001c0,0,0,0,0,0c0,0,0-0.001,0.001-0.001
				c0,0,0,0,0-0.001c0,0,0.001,0,0.001,0h0c0,0,0-0.001,0.001-0.001h0c0,0,0.001,0,0.001-0.001l0,0c0,0,0.001,0,0.001-0.001
				c0,0,0,0,0,0c0,0,0.001,0,0.001,0v-0.001c0,0,0.001,0,0.001,0c0,0,0,0,0,0c0-0.001,0-0.001,0.001-0.001c0,0,0,0,0,0
				c0,0,0,0,0.001-0.001l0,0c0-0.001,0.001-0.001,0.001-0.001l0,0c0,0,0.001,0,0.001-0.001c0,0,0,0,0,0c0,0,0,0,0.001,0
				c0-0.001,0-0.001,0-0.001s0,0,0.001,0l0,0c0-0.001,0.001-0.001,0.001-0.001h0c0-0.001,0-0.001,0.001-0.001l0,0
				c0.001,0,0.001-0.001,0.001-0.001s0,0,0-0.001c0,0,0,0,0.001,0h0c0-0.001,0.001-0.001,0.001-0.001h0c0,0,0.001,0,0.001-0.001h0
				c0,0,0,0,0.001,0c0,0,0,0,0,0c0-0.001,0.001-0.001,0.001-0.001h0c0,0,0.001-0.001,0.001-0.001h0c0,0,0.001-0.001,0.001-0.001
				c0,0,0,0,0,0c0,0,0,0,0-0.001c0,0,0,0,0,0c0,0,0.001-0.001,0.001-0.001h0c0,0,0,0,0-0.001c0,0,0,0,0,0c0,0,0.001,0,0.001,0
				c0,0,0-0.001,0-0.001c0,0,0,0,0.001,0c0,0,0,0,0,0c0-0.001,0-0.001,0.001-0.001h0c0,0,0-0.001,0.001-0.001h0l0.001-0.001
				c0,0,0,0,0,0c0-0.001,0-0.001,0.001-0.001s0,0,0,0c0,0,0-0.001,0.001-0.001s0,0,0,0c0,0,0,0,0.001,0c0-0.001,0-0.001,0-0.001
				c0,0,0,0,0.001,0c0,0,0,0,0-0.001c0,0,0.001,0,0.001,0c0,0,0,0,0,0c0,0,0-0.001,0.001-0.001s0,0,0.001,0c0,0,0,0,0.001-0.001l0,0
				c0-0.001,0.001-0.001,0.001-0.001h0c0-0.001,0.001-0.001,0.001-0.001l0,0c0,0,0.001,0,0.001-0.001h0c0,0,0.001,0,0.001,0
				c0,0,0-0.001,0-0.001c0,0,0,0,0.001,0l0,0c0.001,0,0.001-0.001,0.001-0.001h0c0,0,0,0,0.001-0.001c0,0,0,0,0,0c0,0,0,0,0.001,0
				c0,0,0-0.001,0-0.001s0,0,0.001-0.001c0,0,0,0,0,0c0,0,0.001,0,0.001-0.001h0c0,0,0,0,0.001,0l0-0.001c0,0,0.001,0,0.001,0
				c0,0,0,0,0,0c0-0.001,0.001-0.001,0.001-0.001c0,0,0,0,0,0c0,0,0.001-0.001,0.001-0.001l0,0c0,0,0.001,0,0.001-0.001c0,0,0,0,0,0
				c0,0,0.001-0.001,0.001-0.001c0,0,0,0,0,0c0,0,0,0,0.001-0.001l0,0c0,0,0.001,0,0.001,0c0,0,0,0,0-0.001c0,0,0,0,0.001,0
				c0,0,0,0,0-0.001c0,0,0,0,0.001,0h0c0,0,0-0.001,0.001-0.001c0,0,0,0,0,0c0,0,0,0,0.001-0.001l0,0c0.001,0,0.001,0,0.001,0
				l0-0.001c0,0,0,0,0.001-0.001c0,0,0,0,0,0s0,0,0.001,0l0-0.001c0,0,0,0,0.001,0h0c0-0.001,0.001-0.001,0.001-0.001c0,0,0,0,0,0
				c0-0.001,0.001-0.001,0.001-0.001h0c0,0,0.001-0.001,0.001-0.001h0c0,0,0.001,0,0.001,0c0,0,0-0.001,0-0.001
				c0,0,0.001,0,0.001-0.001l0,0c0,0,0.001,0,0.001,0c0,0,0-0.001,0-0.001c0,0,0.001,0,0.001,0c0,0,0,0,0,0
				c0-0.001,0-0.001,0.001-0.001l0,0c0,0,0.001-0.001,0.001-0.001c0,0,0,0,0,0c0,0,0-0.001,0.001-0.001c0,0,0,0,0,0c0,0,0,0,0-0.001
				c0,0,0.001,0,0.001,0c0,0,0,0,0.001,0c0,0,0,0,0-0.001c0,0,0,0,0.001-0.001c0,0,0,0,0,0c0,0,0.001,0,0.001,0c0,0,0-0.001,0-0.001
				c0,0,0,0,0.001,0l0,0c0.001,0,0.001-0.001,0.001-0.001s0,0,0,0c0,0,0,0,0.001-0.001h0c0,0,0.001,0,0.001-0.001c0,0,0,0,0,0
				c0,0,0.001,0,0.001,0c0,0,0-0.001,0-0.001c0,0,0.001,0,0.001-0.001l0,0c0,0,0.001,0,0.001,0c0-0.001,0-0.001,0-0.001
				c0,0,0.001,0,0.001,0l0,0c0-0.001,0.001-0.001,0.001-0.001c0,0,0,0,0,0c0.001,0,0.001-0.001,0.001-0.001c0,0,0,0,0,0
				c0,0,0,0,0.001-0.001l0,0c0,0,0.001,0,0.001,0l0-0.001c0,0,0,0,0.001,0c0,0,0,0,0,0c0-0.001,0-0.001,0.001-0.001l0-0.001
				c0,0,0,0,0.001,0c0,0,0,0,0,0c0-0.001,0-0.001,0.001-0.001h0c0,0,0.001-0.001,0.001-0.001h0c0,0,0,0,0.001-0.001c0,0,0,0,0,0
				c0,0,0.001,0,0.001,0s0,0,0-0.001c0,0,0.001,0,0.001,0s0,0,0.001,0c0-0.001,0-0.001,0-0.002h0c0,0,0.001,0,0.001,0
				s0-0.001,0.001-0.001h0c0,0,0,0,0,0c0-0.001,0.001-0.001,0.001-0.001c0,0,0,0,0,0c0,0,0.001,0,0.001-0.001c0,0,0,0,0,0
				c0,0,0,0,0.001,0v-0.001c0.001,0,0.001,0,0.001,0h0c0-0.001,0-0.001,0.001-0.001c0-0.001,0-0.001,0-0.001s0,0,0.001,0h0
				c0-0.001,0-0.001,0.001-0.001c0,0,0,0,0,0c0-0.001,0.001-0.001,0.001-0.001h0c0,0,0-0.001,0.001-0.001h0c0,0,0.001,0,0.001-0.001
				c0,0,0,0,0,0c0,0,0.001,0,0.001,0l0-0.001c0,0,0,0,0.001,0s0,0,0,0c0-0.001,0.001-0.001,0.001-0.001c0,0,0,0,0,0
				c0-0.001,0-0.001,0.001-0.001l0,0c0,0,0.001-0.001,0.001-0.001l0,0c0,0,0.001-0.001,0.001-0.001c0,0,0,0,0.001,0
				c0,0,0,0,0.001-0.001c0,0,0,0,0,0h0c0,0,0,0,0.001-0.001c0,0,0,0,0.001,0l0,0c0-0.001,0.001-0.001,0.001-0.001v-0.001
				c0.001,0,0.001,0,0.001,0c0,0,0,0,0,0c0-0.001,0-0.001,0.001-0.001c0,0,0,0,0,0s0.001,0,0.001-0.001h0c0,0,0-0.001,0.001-0.001
				l0,0c0.001,0,0.001,0,0.001,0l0-0.001c0,0,0,0,0.001,0h0c0-0.001,0.001-0.001,0.001-0.001c0,0,0,0,0,0
				c0,0,0.001-0.001,0.001-0.001h0c0-0.001,0.001-0.001,0.001-0.001c0,0,0,0,0,0l0-0.001c0,0,0,0,0,0c0,0,0.001,0,0.001-0.001l0,0
				c0,0,0.001,0,0.001-0.001l0,0c0,0,0.001,0,0.001,0c0,0,0-0.001,0-0.001c0,0,0,0,0.001,0l0,0c0-0.001,0.001-0.001,0.001-0.001
				l0-0.001c0,0,0,0,0.001,0c0,0,0,0,0,0c0-0.001,0-0.001,0.001-0.001s0,0,0,0c0,0,0,0,0.001-0.001c0,0,0,0,0,0c0,0,0,0,0.001,0
				c0,0,0,0,0-0.001c0,0,0,0,0.001,0h0c0-0.001,0-0.001,0.001-0.001h0c0-0.001,0.001-0.001,0.001-0.001c0,0,0,0,0,0
				c0,0,0.001,0,0.001-0.001h0c0-0.001,0.001-0.001,0.001-0.001l0,0c0,0,0.001-0.001,0.001-0.001h0c0,0,0.001,0,0.001,0
				c0-0.001,0-0.001,0-0.001c0,0,0.001,0,0.001,0c0,0,0,0,0,0c0-0.001,0.001-0.001,0.001-0.001c0,0,0,0,0,0c0,0,0-0.001,0.001-0.001
				l0,0c0,0,0.001-0.001,0.001-0.001c0,0,0,0,0-0.001c0,0,0,0,0.001,0l0,0c0,0,0.001-0.001,0.001-0.001h0c0,0,0,0,0.001-0.001
				c0,0,0,0,0,0c0,0,0,0,0.001,0s0-0.001,0-0.001c0,0,0,0,0.001,0h0c0-0.001,0-0.001,0.001-0.001l0,0c0,0,0.001,0,0.001-0.001h0
				c0,0,0-0.001,0.001-0.001h0c0-0.001,0.001-0.001,0.001-0.001c0,0,0,0,0,0c0,0,0-0.001,0.001-0.001h0c0,0,0.001,0,0.001,0
				c0,0,0,0,0-0.001c0,0,0.001,0,0.001,0s0,0,0.001,0c0-0.001,0-0.001,0.001-0.001c0.341-0.197,0.544-0.55,0.544-0.943
				C62.592,68.477,62.21,67.818,61.597,67.463z"/>
			<path fill="#BCBACE" d="M61.147,67.715l-0.095-0.054v0.44c0.442,0.297,0.712,0.799,0.712,1.336c0,0.258-0.133,0.488-0.356,0.617
				c-0.111,0.064-0.234,0.097-0.356,0.097v0.378c0.187,0,0.375-0.049,0.545-0.148c0.341-0.196,0.544-0.549,0.544-0.943
				C62.141,68.73,61.76,68.07,61.147,67.715z"/>
		</g>
	</g>
</g>
<g>
	<g>
		<g>
			<path fill="#4A94FF" d="M43.941,83.695c0.015-0.344-0.229-0.709-0.722-0.994l-17.258-9.962c-0.874-0.505-2.195-0.56-2.952-0.123
				L5.2,82.898c-0.333,0.191-0.5,0.447-0.51,0.715c0,0.002,0,0.004,0,0.004c0,0.002,0,0.004,0,0.006c0,0,0,0.002,0,0.004
				s0,0.004,0,0.004c0,0.002,0,0.004,0,0.006c0,0,0,0.002,0,0.004s0,0.002,0,0.004s0,0.004,0,0.004c0,0.002,0,0.004,0,0.006
				s0,0.002,0,0.004s0,0.004,0,0.004c0,0.002,0,0.004,0,0.006c0,0,0,0.002,0,0.004s0,0.002,0,0.004s0,0.004,0,0.006
				c0,0,0,0.002,0,0.004s0,0.002,0,0.004s0,0.004,0,0.006c0,0,0,0.002,0,0.004s0,0.002,0,0.004s0,0.004,0,0.004
				c0,0.002,0,0.004,0,0.006s0,0.002,0,0.004s0,0.004,0,0.004c0,0.002,0,0.004,0,0.006c0,0,0,0.002,0,0.004s0,0.004,0,0.004
				c0,0.002,0,0.004,0,0.006c0,0,0,0.002,0,0.004s0,0.002,0,0.004s0,0.004,0,0.004c0,0.002,0,0.004,0,0.006s0,0.002,0,0.004
				s0,0.004,0,0.004c0,0.002,0,0.004,0,0.006c0,0,0,0.002,0,0.004s0,0.002,0,0.004s0,0.004,0,0.006c0,0,0,0.002,0,0.004
				s0,0.002,0,0.004s0,0.004,0,0.004c0,0.002,0,0.004,0,0.006c0,0,0,0.002,0,0.004s0,0.004,0,0.004c0,0.002,0,0.004,0,0.006
				c0,0,0,0.002,0,0.004s0,0.002,0,0.004s0,0.004,0,0.004c0,0.002,0,0.004,0,0.006s0,0.002,0,0.004s0,0.004,0,0.004
				c0,0.002,0,0.004,0,0.006c0,0,0,0.002,0,0.004s0,0.002,0,0.004s0,0.004,0,0.006c0,0,0,0.002,0,0.004s0,0.002,0,0.004
				s0,0.004,0,0.004c0,0.002,0,0.004,0,0.006s0,0.002,0,0.004s0,0.004,0,0.004c0,0.002,0,0.004,0,0.006c0,0,0,0.002,0,0.004
				s0,0.002,0,0.004s0,0.004,0,0.006c0,0,0,0.002,0,0.004s0,0.002,0,0.004s0,0.004,0,0.004c0,0.002,0,0.004,0,0.006
				c0,0,0,0.002,0,0.004s0,0.004,0,0.004c0,0.002,0,0.004,0,0.006c0,0,0,0.002,0,0.004s0,0.002,0,0.004s0,0.004,0,0.004
				c0,0.002,0,0.004,0,0.006s0,0.002,0,0.004s0,0.004,0,0.004c0,0.002,0,0.004,0,0.006c0,0,0,0.002,0,0.004s0,0.002,0,0.004
				s0,0.004,0,0.006c0,0,0,0.002,0,0.004s0,0.002,0,0.004s0,0.004,0,0.004c0,0.002,0,0.004,0,0.006c0,0,0,0.002,0,0.004
				s0,0.004,0,0.004c0,0.002,0,0.004,0,0.006c0,0,0,0.002,0,0.004s0,0.002,0,0.004s0,0.004,0,0.006c0,0,0,0.002,0,0.004
				s0,0.002,0,0.004s0,0.004,0,0.004c0,0.002,0,0.004,0,0.006c0,0,0,0.002,0,0.004s0,0.004,0,0.004c0,0.002,0,0.004,0,0.006
				c-0.016,0.344,0.229,0.709,0.722,0.992l17.257,9.965c0.874,0.504,2.196,0.559,2.952,0.121l17.81-10.281
				c0.332-0.191,0.5-0.447,0.51-0.715c0-0.002,0-0.004,0-0.006c0,0,0-0.002,0-0.004s0-0.002,0-0.004s0-0.004,0-0.006
				c0,0,0-0.002,0-0.004s0-0.002,0-0.004s0-0.004,0-0.004c0-0.002,0-0.004,0-0.006c0,0,0-0.002,0-0.004s0-0.004,0-0.004
				c0-0.002,0-0.004,0-0.006c0,0,0-0.002,0-0.004s0-0.002,0-0.004s0-0.004,0-0.004c0-0.002,0-0.004,0-0.006s0-0.002,0-0.004
				s0-0.004,0-0.004c0-0.002,0-0.004,0-0.006c0,0,0-0.002,0-0.004s0-0.002,0-0.004s0-0.004,0-0.006c0,0,0-0.002,0-0.004
				s0-0.002,0-0.004s0-0.004,0-0.004c0-0.002,0-0.004,0-0.006c0,0,0-0.002,0-0.004s0-0.004,0-0.004c0-0.002,0-0.004,0-0.006
				c0,0,0-0.002,0-0.004s0-0.002,0-0.004s0-0.004,0-0.006c0,0,0-0.002,0-0.004s0-0.002,0-0.004s0-0.004,0-0.004
				c0-0.002,0-0.004,0-0.006c0,0,0-0.002,0-0.004s0-0.004,0-0.004c0-0.002,0-0.004,0-0.006c0,0,0-0.002,0-0.004s0-0.002,0-0.004
				s0-0.004,0-0.004c0-0.002,0-0.004,0-0.006s0-0.002,0-0.004s0-0.004,0-0.004c0-0.002,0-0.004,0-0.006c0,0,0-0.002,0-0.004
				s0-0.002,0-0.004s0-0.004,0-0.006c0,0,0-0.002,0-0.004s0-0.002,0-0.004s0-0.004,0-0.004c0-0.002,0-0.004,0-0.006
				c0,0,0-0.002,0-0.004s0-0.004,0-0.004c0-0.002,0-0.004,0-0.006c0,0,0-0.002,0-0.004s0-0.002,0-0.004s0-0.004,0-0.004
				c0-0.002,0-0.004,0-0.006s0-0.002,0-0.004s0-0.004,0-0.004c0-0.002,0-0.004,0-0.006c0,0,0-0.002,0-0.004s0-0.004,0-0.004
				c0-0.002,0-0.004,0-0.006c0,0,0-0.002,0-0.004s0-0.002,0-0.004s0-0.004,0-0.004c0-0.002,0-0.004,0-0.006s0-0.002,0-0.004
				s0-0.004,0-0.004c0-0.002,0-0.004,0-0.006c0,0,0-0.002,0-0.004s0-0.002,0-0.004s0-0.004,0-0.006c0,0,0-0.002,0-0.004
				s0-0.002,0-0.004s0-0.004,0-0.004c0-0.002,0-0.004,0-0.006c0,0,0-0.002,0-0.004s0-0.004,0-0.004c0-0.002,0-0.004,0-0.006
				c0,0,0-0.002,0-0.004s0-0.002,0-0.004s0-0.004,0-0.004c0-0.002,0-0.004,0-0.006s0-0.002,0-0.004s0-0.004,0-0.004
				c0-0.002,0-0.004,0-0.006c0,0,0-0.002,0-0.004s0-0.002,0-0.004s0-0.004,0-0.006s0-0.002,0-0.004s0-0.004,0-0.004
				c0-0.002,0-0.004,0-0.006c0,0,0-0.002,0-0.004s0-0.002,0-0.004s0-0.004,0-0.006C43.941,83.698,43.941,83.697,43.941,83.695z"/>
			<path fill="#4A94FF" d="M43.431,84.402l-17.81,10.281c-0.756,0.438-2.078,0.383-2.952-0.121L5.412,84.597
				c-0.874-0.504-0.969-1.268-0.212-1.703l17.81-10.282c0.757-0.438,2.078-0.382,2.952,0.122l17.258,9.963
				C44.092,83.2,44.188,83.964,43.431,84.402z"/>
		</g>
		<g>
			<defs>
				<path id="XMLID_37_" d="M43.431,84.288L25.621,94.57c-0.756,0.438-2.078,0.383-2.952-0.121L5.412,84.484
					C4.538,83.98,4.443,83.216,5.2,82.781l17.81-10.282c0.757-0.438,2.078-0.382,2.952,0.122l17.258,9.963
					C44.092,83.087,44.188,83.851,43.431,84.288z"/>
			</defs>
			<use xlink:href="#XMLID_37_"  overflow="visible" fill="#F2F7FA"/>
			<clipPath id="XMLID_2_">
				<use xlink:href="#XMLID_37_"  overflow="visible"/>
			</clipPath>
			<g opacity="0.6" clip-path="url(#XMLID_2_)">
				<g>
					<polygon fill="#4F4C4D" points="32.514,80.243 32.514,80.243 32.511,80.241 					"/>
					<path fill="#373E63" d="M17.501,121.991V90.007c0-0.789,0.48-1.707,1.072-2.049l13.253-7.65
						c0.257-0.148,0.925,0.041,1.016,0.387c-0.12-0.557-1.319-1.33-1.999-1.512c-0.21-0.055-0.506-0.047-1.192,0.248l-12.48,7.193
						c-0.77,0.443-1.316,1.213-1.422,2.096c-0.01,0.09-0.017,0.178-0.017,0.266v31.982c0,0.422,0.084,0.76,0.272,1.023
						c0.461,0.645,1.59,1.037,2.261,0.928l-0.386-0.059C17.648,122.732,17.501,122.427,17.501,121.991z"/>
				</g>
				<g>
					<path fill="#545F90" d="M31.826,115.15l-13.253,7.652c-0.592,0.342-1.072-0.021-1.072-0.811V90.007
						c0-0.789,0.48-1.707,1.072-2.049l13.253-7.65c0.592-0.342,1.073,0.02,1.073,0.811v31.982
						C32.899,113.89,32.418,114.808,31.826,115.15z"/>
					<polygon fill="#4A94FF" points="31.883,111.329 18.516,119.046 18.516,91.779 31.883,84.062 					"/>
					<path fill="#3A415D" d="M26.513,84.857l-2.548,1.471c-0.094,0.055-0.17-0.004-0.17-0.129v-0.09
						c0-0.064,0.035-0.127,0.092-0.158l2.547-1.471c0.094-0.055,0.17,0.002,0.17,0.129v0.09
						C26.604,84.763,26.57,84.823,26.513,84.857z"/>
					<path fill="#3A415D" d="M26.604,116.909c0-0.125-0.076-0.184-0.17-0.129l-2.547,1.471c-0.057,0.033-0.092,0.094-0.092,0.158
						v0.092c0,0.125,0.076,0.182,0.17,0.127l2.548-1.471c0.057-0.033,0.091-0.092,0.091-0.158V116.909z"/>
				</g>
				<g>
					<g>
						<path fill="#414A72" d="M17.044,92.218c-0.007-0.27-0.195-0.59-0.428-0.725c-0.232-0.135-0.421-0.029-0.428,0.23h-0.001v3.451
							h0.001c0,0.006-0.001,0.01-0.001,0.016c0,0.273,0.192,0.604,0.43,0.742c0.237,0.137,0.43,0.027,0.43-0.246
							c0-0.004-0.002-0.01-0.002-0.016h0.002V92.22L17.044,92.218z"/>
						<path fill="#414A72" d="M17.044,105.652c-0.007-0.27-0.195-0.59-0.428-0.725c-0.232-0.135-0.421-0.029-0.428,0.23h-0.001
							v3.451h0.001c0,0.006-0.001,0.01-0.001,0.016c0,0.273,0.192,0.605,0.43,0.742s0.43,0.027,0.43-0.246
							c0-0.006-0.002-0.01-0.002-0.016h0.002v-3.451L17.044,105.652z"/>
						<path fill="#414A72" d="M17.046,103.359c0,0.273-0.193,0.383-0.43,0.246s-0.43-0.469-0.43-0.742
							c0-0.271,0.192-0.381,0.43-0.244S17.046,103.087,17.046,103.359z"/>
					</g>
				</g>
			</g>
		</g>
	</g>
	<path opacity="0.1" d="M33.186,80.011l-14.524,8.385c-0.528,0.307-1.45,0.268-2.059-0.084l0,0
		c-0.609-0.352-0.675-0.885-0.147-1.189l14.525-8.385c0.527-0.305,1.449-0.268,2.058,0.084l0,0
		C33.647,79.175,33.713,79.706,33.186,80.011z"/>
	<path fill="#2B2E3A" d="M17.918,87.07V55.088c0-0.789,0.48-1.707,1.072-2.049l13.253-7.651c0.257-0.148,0.925,0.042,1.017,0.387
		c-0.12-0.557-1.32-1.328-1.999-1.511c-0.211-0.057-0.506-0.047-1.193,0.248l-12.481,7.193c-0.77,0.443-1.316,1.213-1.422,2.095
		c-0.01,0.09-0.017,0.179-0.017,0.267V86.05c0,0.42,0.084,0.758,0.272,1.02c0.461,0.646,1.591,1.039,2.261,0.93l-0.386-0.059
		C18.065,87.812,17.918,87.507,17.918,87.07z"/>
	<path fill="#4F5466" d="M32.244,80.23L18.99,87.882c-0.592,0.342-1.072-0.021-1.072-0.813V55.088c0-0.789,0.48-1.707,1.072-2.049
		l13.253-7.651c0.592-0.343,1.073,0.021,1.073,0.811v31.982C33.317,78.97,32.836,79.888,32.244,80.23z"/>
	<g>
		<image overflow="visible" width="86" height="108" xlink:href="65A90C30.png"  transform="matrix(1 0 0 1 -17.6675 12.7327)">
		</image>
	</g>
	<polygon fill="#4A94FF" points="32.3,76.41 18.934,84.126 18.934,56.86 32.3,49.142 	"/>
	<path fill="#3A415D" d="M26.931,50.938l-2.548,1.472c-0.094,0.054-0.17-0.004-0.17-0.13v-0.089c0-0.065,0.035-0.126,0.091-0.159
		l2.548-1.471c0.094-0.055,0.17,0.003,0.17,0.129v0.09C27.022,50.845,26.987,50.906,26.931,50.938z"/>
	<path fill="#3A415D" d="M27.022,81.458c0-0.125-0.076-0.184-0.17-0.129L24.304,82.8c-0.056,0.033-0.091,0.094-0.091,0.158v0.092
		c0,0.125,0.076,0.182,0.17,0.129l2.548-1.473c0.056-0.031,0.091-0.092,0.091-0.158V81.458z"/>
	<g>
		<path fill="#3A415D" d="M28.716,49.685c0,0.233-0.165,0.519-0.368,0.636s-0.369,0.023-0.369-0.211
			c0-0.233,0.165-0.518,0.369-0.635S28.716,49.451,28.716,49.685z"/>
	</g>
	<g>
		<g>
			<path fill="#414A72" d="M17.462,57.299c-0.007-0.27-0.195-0.591-0.428-0.725c-0.233-0.135-0.421-0.03-0.429,0.229l-0.001-0.001
				v3.453l0.001,0.001c0,0.005-0.001,0.009-0.001,0.015c0,0.272,0.192,0.604,0.43,0.741s0.43,0.027,0.43-0.245
				c0-0.006-0.001-0.011-0.001-0.017l0.001,0.001V57.3L17.462,57.299z"/>
			<path fill="#414A72" d="M17.462,70.733c-0.007-0.27-0.195-0.591-0.428-0.725c-0.233-0.135-0.421-0.031-0.429,0.229h-0.001v3.451
				l0.001,0.001c0,0.006-0.001,0.01-0.001,0.016c0,0.272,0.192,0.604,0.43,0.741c0.237,0.137,0.43,0.027,0.43-0.245
				c0-0.005-0.001-0.012-0.001-0.017l0.001,0.001v-3.452L17.462,70.733z"/>
			<path fill="#414A72" d="M17.463,68.44c0,0.272-0.192,0.382-0.43,0.245s-0.43-0.469-0.43-0.741s0.192-0.382,0.43-0.245
				S17.463,68.167,17.463,68.44z"/>
		</g>
	</g>
	<g>
		<g opacity="0.4">
			<path fill="#FFFFFF" d="M30.868,62.542l-10.756,6.21c-0.18,0.104-0.326-0.006-0.326-0.246v-2.871c0-0.24,0.146-0.519,0.326-0.623
				l10.756-6.21c0.18-0.104,0.326,0.007,0.326,0.247v2.871C31.194,62.159,31.048,62.439,30.868,62.542z"/>
			<g>
				<g>
					
						<line fill="none" stroke="#373E63" stroke-width="1.2851" stroke-miterlimit="10" x1="29.062" y1="60.78" x2="29.769" y2="60.372"/>
					
						<line fill="none" stroke="#373E63" stroke-width="1.2851" stroke-miterlimit="10" x1="23.657" y1="63.901" x2="28.248" y2="61.25"/>
					
						<line fill="none" stroke="#CFD8DC" stroke-width="1.2548" stroke-miterlimit="10" x1="23.657" y1="64.835" x2="30.583" y2="60.836"/>
					
						<line fill="none" stroke="#CFD8DC" stroke-width="1.2548" stroke-miterlimit="10" x1="26.252" y1="64.273" x2="29.062" y2="62.65"/>
					
						<line fill="none" stroke="#CFD8DC" stroke-width="1.2548" stroke-miterlimit="10" x1="23.657" y1="65.771" x2="25.437" y2="64.743"/>
				</g>
				<path fill="#A5D6A7" d="M22.515,66.898l-1.793,1.035c-0.18,0.104-0.325-0.007-0.325-0.247V65.75c0-0.24,0.146-0.519,0.325-0.623
					l1.793-1.035c0.18-0.104,0.326,0.007,0.326,0.247v1.936C22.841,66.515,22.695,66.793,22.515,66.898z"/>
			</g>
		</g>
		<g opacity="0.4">
			<path fill="#FFFFFF" d="M30.868,68.153l-10.756,6.21c-0.18,0.104-0.326-0.007-0.326-0.246v-2.871c0-0.24,0.146-0.52,0.326-0.623
				l10.756-6.21c0.18-0.104,0.326,0.007,0.326,0.247v2.87C31.194,67.77,31.048,68.049,30.868,68.153z"/>
			<g>
				<g>
					
						<line fill="none" stroke="#373E63" stroke-width="1.2851" stroke-miterlimit="10" x1="23.657" y1="69.511" x2="26.509" y2="67.865"/>
					
						<line fill="none" stroke="#CFD8DC" stroke-width="1.2548" stroke-miterlimit="10" x1="29.837" y1="66.877" x2="30.583" y2="66.447"/>
					
						<line fill="none" stroke="#CFD8DC" stroke-width="1.2548" stroke-miterlimit="10" x1="23.657" y1="70.446" x2="29.321" y2="67.176"/>
					
						<line fill="none" stroke="#CFD8DC" stroke-width="1.2548" stroke-miterlimit="10" x1="28.724" y1="68.455" x2="30.583" y2="67.382"/>
					
						<line fill="none" stroke="#CFD8DC" stroke-width="1.2548" stroke-miterlimit="10" x1="26.17" y1="69.93" x2="27.909" y2="68.926"/>
					
						<line fill="none" stroke="#CFD8DC" stroke-width="1.2548" stroke-miterlimit="10" x1="23.657" y1="71.38" x2="25.355" y2="70.4"/>
				</g>
				<path fill="#81D4FA" d="M22.515,72.508l-1.793,1.034c-0.18,0.104-0.325-0.006-0.325-0.246v-1.936c0-0.24,0.146-0.52,0.325-0.623
					l1.793-1.035c0.18-0.104,0.326,0.007,0.326,0.247v1.936C22.841,72.125,22.695,72.404,22.515,72.508z"/>
			</g>
		</g>
	</g>
	<path fill="#FFFFFF" d="M32.538,56.932l-10.756,6.211c-0.181,0.104-0.326-0.007-0.326-0.247v-2.871c0-0.24,0.146-0.519,0.326-0.622
		l10.756-6.21c0.18-0.104,0.326,0.006,0.326,0.246v2.871C32.863,56.55,32.717,56.828,32.538,56.932z"/>
	<g>
		<g>
			
				<line fill="none" stroke="#373E63" stroke-width="1.2851" stroke-miterlimit="10" x1="27.514" y1="57.028" x2="31.438" y2="54.762"/>
			
				<line fill="none" stroke="#373E63" stroke-width="1.2851" stroke-miterlimit="10" x1="25.327" y1="58.29" x2="26.699" y2="57.498"/>
			
				<line fill="none" stroke="#CFD8DC" stroke-width="1.2548" stroke-miterlimit="10" x1="25.327" y1="59.225" x2="29.809" y2="56.638"/>
			
				<line fill="none" stroke="#CFD8DC" stroke-width="1.2548" stroke-miterlimit="10" x1="28.057" y1="58.584" x2="31.438" y2="56.632"/>
			
				<line fill="none" stroke="#CFD8DC" stroke-width="1.2548" stroke-miterlimit="10" x1="25.327" y1="60.16" x2="27.242" y2="59.054"/>
		</g>
		<path fill="#CFD8DC" d="M24.185,61.287l-1.793,1.035c-0.18,0.104-0.326-0.007-0.326-0.247V60.14c0-0.24,0.146-0.519,0.326-0.623
			l1.793-1.034c0.18-0.104,0.326,0.006,0.326,0.246v1.936C24.511,60.905,24.365,61.184,24.185,61.287z"/>
	</g>
</g>
<g>
	<g>
		<path fill="#F9C432" d="M23.379,39.238v7.988c0,0.425,0.209,0.85,0.63,1.092c0.859,0.497,1.918,0.497,2.779,0
			c0.42-0.242,0.632-0.667,0.632-1.092v-7.988H23.379z"/>
	</g>
	<path fill="#FFD243" d="M23.235,44.015c2.114,4.553,5.537,5.055,7.787,4.899c0.816-0.057,1.438-0.739,1.438-1.558v-6.21
		c0-3.646-3.974-5.527-7.685-4.903C20.624,36.938,21.308,42.593,23.235,44.015z"/>
	<path fill="#FF9022" d="M29.296,40.263c-2.506-1.45-6.191-2.132-7.479-2.038c-0.167,0.014-0.287-0.16-0.21-0.305
		c1.306-2.451,4.581-1.816,4.581-1.816c2.114,0.534,3.688,2.513,4.369,3.842C30.814,40.449,29.783,40.546,29.296,40.263z"/>
	<path fill="#4C4C42" d="M23.862,41.688v1.057c0,0.226,0.182,0.409,0.41,0.409c0.225,0,0.41-0.182,0.41-0.409v-1.057
		c0-2.024,1.09-3.913,2.845-4.925l0.736-0.426c0.437-0.25,0.958-0.254,1.399-0.009c0.379,0.212,0.63,0.573,0.701,0.99
		c0.308,0.21,0.591,0.447,0.841,0.709v-0.525c-0.021-0.795-0.448-1.5-1.142-1.891c-0.695-0.389-1.521-0.384-2.21,0.015l-0.736,0.426
		C25.107,37.21,23.862,39.369,23.862,41.688z"/>
	<g>
		
			<linearGradient id="SVGID_2_" gradientUnits="userSpaceOnUse" x1="408.6416" y1="688.9485" x2="410.793" y2="688.9485" gradientTransform="matrix(-1 0 0 1 440.8379 -643.1465)">
			<stop  offset="0" style="stop-color:#3182AF"/>
			<stop  offset="0.3737" style="stop-color:#4071A4"/>
			<stop  offset="1" style="stop-color:#624C8C"/>
		</linearGradient>
		<path fill="url(#SVGID_2_)" d="M30.118,46.331c-0.055-0.019-0.086-0.076-0.067-0.13c0.018-0.055,0.075-0.085,0.129-0.068
			c1.224,0.378,1.795-0.827,1.82-0.878c0.022-0.051,0.085-0.076,0.134-0.05c0.053,0.022,0.076,0.083,0.053,0.135
			c-0.007,0.013-0.507,1.071-1.548,1.071C30.479,46.411,30.305,46.385,30.118,46.331z"/>
	</g>
	<g>
		
			<linearGradient id="SVGID_3_" gradientUnits="userSpaceOnUse" x1="408.9707" y1="689.6311" x2="410.2529" y2="689.6311" gradientTransform="matrix(-1 0 0 1 440.8379 -643.1465)">
			<stop  offset="0" style="stop-color:#3182AF"/>
			<stop  offset="0.3737" style="stop-color:#4071A4"/>
			<stop  offset="1" style="stop-color:#624C8C"/>
		</linearGradient>
		<path fill="url(#SVGID_3_)" d="M30.629,46.784c-0.031-0.01-0.05-0.043-0.043-0.075c0.008-0.031,0.043-0.053,0.077-0.044
			c0.805,0.21,1.075-0.459,1.087-0.487c0.013-0.031,0.05-0.046,0.08-0.034c0.028,0.011,0.045,0.047,0.033,0.08
			c-0.003,0.006-0.238,0.605-0.901,0.605C30.861,46.83,30.754,46.818,30.629,46.784z"/>
	</g>
	<g>
		
			<linearGradient id="SVGID_4_" gradientUnits="userSpaceOnUse" x1="411.123" y1="686.386" x2="412.0484" y2="686.386" gradientTransform="matrix(-1 0 0 1 440.8379 -643.1465)">
			<stop  offset="0" style="stop-color:#3182AF"/>
			<stop  offset="0.3737" style="stop-color:#4071A4"/>
			<stop  offset="1" style="stop-color:#624C8C"/>
		</linearGradient>
		<ellipse fill="url(#SVGID_4_)" cx="29.251" cy="43.24" rx="0.461" ry="0.694"/>
		
			<linearGradient id="SVGID_5_" gradientUnits="userSpaceOnUse" x1="411.252" y1="685.7805" x2="411.6011" y2="687.0842" gradientTransform="matrix(-1 0 0 1 440.8379 -643.1465)">
			<stop  offset="0" style="stop-color:#AF73FF"/>
			<stop  offset="0.56" style="stop-color:#A2FFFF"/>
			<stop  offset="1" style="stop-color:#AF73FF"/>
		</linearGradient>
		<path fill="url(#SVGID_5_)" d="M28.957,43.77c0.078,0.102,0.183,0.167,0.294,0.167c0.257,0,0.462-0.311,0.462-0.694
			c0-0.31-0.133-0.568-0.32-0.658c0.101,0.127,0.167,0.314,0.167,0.527c0,0.383-0.207,0.694-0.462,0.694
			C29.049,43.806,29,43.79,28.957,43.77z"/>
	</g>
	<g>
		
			<linearGradient id="SVGID_6_" gradientUnits="userSpaceOnUse" x1="408.6318" y1="685.0374" x2="409.5579" y2="685.0374" gradientTransform="matrix(-1 0 0 1 440.8379 -643.1465)">
			<stop  offset="0" style="stop-color:#3182AF"/>
			<stop  offset="0.3737" style="stop-color:#4071A4"/>
			<stop  offset="1" style="stop-color:#624C8C"/>
		</linearGradient>
		<ellipse fill="url(#SVGID_6_)" cx="31.742" cy="41.891" rx="0.462" ry="0.693"/>
		
			<linearGradient id="SVGID_7_" gradientUnits="userSpaceOnUse" x1="408.7617" y1="684.4319" x2="409.1114" y2="685.7374" gradientTransform="matrix(-1 0 0 1 440.8379 -643.1465)">
			<stop  offset="0" style="stop-color:#AF73FF"/>
			<stop  offset="0.56" style="stop-color:#A2FFFF"/>
			<stop  offset="1" style="stop-color:#AF73FF"/>
		</linearGradient>
		<path fill="url(#SVGID_7_)" d="M31.445,42.419c0.08,0.101,0.185,0.166,0.297,0.166c0.256,0,0.462-0.31,0.462-0.693
			c0-0.311-0.132-0.565-0.32-0.658c0.1,0.126,0.167,0.314,0.167,0.527c0,0.383-0.208,0.693-0.461,0.693
			C31.538,42.454,31.49,42.439,31.445,42.419z"/>
	</g>
	<g>
		
			<linearGradient id="SVGID_8_" gradientUnits="userSpaceOnUse" x1="408.6982" y1="689.3157" x2="416.8984" y2="689.3157" gradientTransform="matrix(-1 0 0 1 440.8379 -643.1465)">
			<stop  offset="0" style="stop-color:#86EAE7"/>
			<stop  offset="1" style="stop-color:#925BE8"/>
		</linearGradient>
		<path fill="url(#SVGID_8_)" d="M28.502,48.227c-2.565-0.897-4.343-3.801-4.563-4.297l0.186-0.085
			c0.216,0.485,1.949,3.315,4.445,4.189c1.176,0.411,2.344,0.321,3.475-0.269l0.095,0.182c-0.696,0.363-1.406,0.547-2.125,0.547
			C29.513,48.494,29.009,48.406,28.502,48.227z"/>
	</g>
</g>
</svg>
