<svg version="1.1" id="el_w13w_Jmjs" xmlns="http://www.w3.org/2000/svg" xmlns:xlink="http://www.w3.org/1999/xlink" x="0px" y="0px" viewBox="0 0 413 424" enable-background="new 0 0 413.201 424.229" xml:space="preserve"><style>@-webkit-keyframes el_vV6ibkVhor_Animation{11.33%{opacity: 0;}19.67%{opacity: 0.5;}29.67%{opacity: 1;}0%{opacity: 0;}100%{opacity: 1;}}@keyframes el_vV6ibkVhor_Animation{11.33%{opacity: 0;}19.67%{opacity: 0.5;}29.67%{opacity: 1;}0%{opacity: 0;}100%{opacity: 1;}}@-webkit-keyframes el_PZzoA8ygXQ_MMswG56f1_Animation{11.67%{-webkit-transform: translate(0px, 0px);transform: translate(0px, 0px);}14.33%{-webkit-transform: translate(0px, -30px);transform: translate(0px, -30px);}16.33%{-webkit-transform: translate(0px, -60px);transform: translate(0px, -60px);}19%{-webkit-transform: translate(0px, -100px);transform: translate(0px, -100px);}0%{-webkit-transform: translate(0px, 0px);transform: translate(0px, 0px);}100%{-webkit-transform: translate(0px, -100px);transform: translate(0px, -100px);}}@keyframes el_PZzoA8ygXQ_MMswG56f1_Animation{11.67%{-webkit-transform: translate(0px, 0px);transform: translate(0px, 0px);}14.33%{-webkit-transform: translate(0px, -30px);transform: translate(0px, -30px);}16.33%{-webkit-transform: translate(0px, -60px);transform: translate(0px, -60px);}19%{-webkit-transform: translate(0px, -100px);transform: translate(0px, -100px);}0%{-webkit-transform: translate(0px, 0px);transform: translate(0px, 0px);}100%{-webkit-transform: translate(0px, -100px);transform: translate(0px, -100px);}}@-webkit-keyframes el_PZzoA8ygXQ_Animation{0%{opacity: 0;}2.67%{opacity: 0.2;}6%{opacity: 0.7;}9.33%{opacity: 1;}100%{opacity: 1;}}@keyframes el_PZzoA8ygXQ_Animation{0%{opacity: 0;}2.67%{opacity: 0.2;}6%{opacity: 0.7;}9.33%{opacity: 1;}100%{opacity: 1;}}#el_w13w_Jmjs *{-webkit-animation-duration: 10s;animation-duration: 10s;-webkit-animation-timing-function: cubic-bezier(0, 0, 1, 1);animation-timing-function: cubic-bezier(0, 0, 1, 1);}#el_BMy9xSW3n2{fill: #EAE8E8;}#el_3xR-IP5RUL{-webkit-transform: matrix(1.0941, 0, 0, 1, 112.9395, 34.3774);transform: matrix(1.0941, 0, 0, 1, 112.9395, 34.3774);}#el_Fm9o2jdsBk{fill: #EAE8E8;}#el_CCxyoxEiJg{-webkit-transform: matrix(1, 0, 0, 1, 88.9023, 121.4263);transform: matrix(1, 0, 0, 1, 88.9023, 121.4263);}#el_Am9waf3b5yF{fill: #EAE8E8;}#el_ORH4O8efim1{fill: #C3C4C2;stroke: #BEC1BC;stroke-width: 3;}#el_IqUIN58ilUD{fill: #C3C4C2;stroke: #BEC1BC;stroke-width: 3;}#el_CC7oEE_ml0h{fill: #C3C4C2;stroke: #BEC1BC;stroke-width: 3;}#el_Cvnde2NOMH8{fill: #C3C4C2;stroke: #BEC1BC;stroke-width: 3;}#el_mrN16LGfQq9{fill: #DCF8C6;}#el_PKlnlMY305D{-webkit-transform: matrix(1, 0, 0, 1, 309.5898, 286.5269);transform: matrix(1, 0, 0, 1, 309.5898, 286.5269);}#el_SGp_MGP3koo{fill: none;stroke: #91B2E8;stroke-width: 3;}#el_T1LnrID6oNl{fill: none;stroke: #91B2E8;stroke-width: 3;}#el_U9PscTEWn9J{fill: none;stroke: #91B2E8;stroke-width: 3;}#el_tOpQu0xLzUh{fill: none;stroke: #91B2E8;stroke-width: 3;}#el_fIJhvhSaXCx{fill: #B3B3B3;}#el_moP-mT2r_1a{fill: #666666;}#el_mKRzH2Fpf0J{fill: #4D4D4D;}#el_PZzoA8ygXQ{-webkit-animation-name: el_PZzoA8ygXQ_Animation;animation-name: el_PZzoA8ygXQ_Animation;opacity: 0;}#el_PZzoA8ygXQ_MMswG56f1{-webkit-transform-origin: 50% 50%;transform-origin: 50% 50%;transform-box: fill-box;-webkit-transform: translate(0px, 0px);transform: translate(0px, 0px);-webkit-animation-name: el_PZzoA8ygXQ_MMswG56f1_Animation;animation-name: el_PZzoA8ygXQ_MMswG56f1_Animation;}#el_vV6ibkVhor{-webkit-animation-name: el_vV6ibkVhor_Animation;animation-name: el_vV6ibkVhor_Animation;opacity: 0;}</style>
<g id="el_PZzoA8ygXQ_MMswG56f1" data-animator-group="true" data-animator-type="0"><g id="el_PZzoA8ygXQ">
	<g id="el_y97aXyZiME">
		<path d="M390.201,65.926c0,5.5-4.399,10.05-9.898,10.11L59.887,79.57c-5.5,0.061-10.516-4.357-11.178-9.817&#10;&#9;&#9;&#9;c0,0-3.819-31.599-19.819-40.327c-21.233-11.583-36.396-27-24.994-27c49,0,376.403-2.426,376.403-2.426&#10;&#9;&#9;&#9;c5.5-0.041,9.902,4.426,9.902,9.926V65.926z" id="el_BMy9xSW3n2"/>
	</g>
	<text id="el_3xR-IP5RUL"><tspan x="0" y="0" font-family="'MyriadHebrew-Regular'" font-size="12" id="el_WzhsuO1FaM">Hi I am Job Finder I will notify you about the</tspan><tspan x="216.765" y="14.4" font-family="'MyriadHebrew-Regular'" font-size="12" id="el_-GRQCslBou"> </tspan></text>
</g></g>
<g id="el_vV6ibkVhor">
	<g id="el_lmejHpq_Im">
		<path d="M390.201,248.565c0,5.5-4.398,10.109-9.896,10.243l-320.42,7.794c-5.499,0.134-10.025-4.257-10.092-9.756&#10;&#9;&#9;&#9;c0,0-0.903-76.574,0.097-89.929c3.941-52.637-3.397-70.987,8.005-70.987c49,0,322.406-4.828,322.406-4.828&#10;&#9;&#9;&#9;c5.499-0.097,9.9,4.324,9.9,9.824V248.565z" id="el_Fm9o2jdsBk"/>
	</g>
	<text id="el_CCxyoxEiJg"><tspan x="0" y="0" font-family="'MyriadHebrew-Regular'" font-size="12" id="el_a4A4HnwLCE">Be a delivery Executive at Dunzo! . Earn more than </tspan><tspan x="0" y="14.4" font-family="'MyriadHebrew-Regular'" font-size="12" id="el_z8WH-pLGqN">Rs 30,000 per month . Get joining bonus Rs. 2000 . </tspan><tspan x="0" y="28.8" font-family="'MyriadHebrew-Regular'" font-size="12" id="el_a7Il8tAHfj">Select your language now</tspan><tspan x="0" y="57.6" font-family="'MyriadHebrew-Regular'" font-size="12" id="el_3cudd1-DaM">1) English</tspan><tspan x="0" y="72" font-family="'MyriadHebrew-Regular'" font-size="12" id="el_n2BvR0ucO4">2) Kannada</tspan><tspan x="0" y="86.4" font-family="'MyriadHebrew-Regular'" font-size="12" id="el_0qndaeqP2Hs">3) dont message me</tspan><tspan x="0" y="115.2" font-family="'MyriadHebrew-Regular'" font-size="12" id="el_JDU9TsFrhqM">Type 1,2 or 3 </tspan></text>
</g>
<g id="el_6ALdN-qhabW">
	<g id="el_Cc9aNKgX5YB">
		<path d="M413.201,378.926c0,5.5-4.399,10.05-9.898,10.11L82.887,392.57c-5.5,0.061-10.516-4.356-11.178-9.817&#10;&#9;&#9;&#9;c0,0-3.819-31.598-19.819-40.326c-21.232-11.582-36.396-27-24.994-27c49,0,376.403-2.426,376.403-2.426&#10;&#9;&#9;&#9;c5.5-0.041,9.902,4.426,9.902,9.926V378.926z" id="el_Am9waf3b5yF"/>
	</g>
	<path stroke-miterlimit="10" d="M253.902,335.426c0,0.828-0.386,1.5-0.862,1.5&#10;&#9;&#9;H89.265c-0.477,0-0.862-0.672-0.862-1.5l0,0c0-0.828,0.386-1.5,0.862-1.5H253.04C253.517,333.926,253.902,334.598,253.902,335.426&#10;&#9;&#9;L253.902,335.426z" id="el_ORH4O8efim1"/>
	<path stroke-miterlimit="10" d="M323.402,346.426c0,0.828-0.548,1.5-1.224,1.5&#10;&#9;&#9;H89.626c-0.676,0-1.224-0.672-1.224-1.5l0,0c0-0.828,0.548-1.5,1.224-1.5h232.553C322.854,344.926,323.402,345.598,323.402,346.426&#10;&#9;&#9;L323.402,346.426z" id="el_IqUIN58ilUD"/>
	<path stroke-miterlimit="10" d="M307.902,357.426c0,0.828-0.512,1.5-1.144,1.5&#10;&#9;&#9;H89.546c-0.632,0-1.144-0.672-1.144-1.5l0,0c0-0.828,0.512-1.5,1.144-1.5h217.213C307.391,355.926,307.902,356.598,307.902,357.426&#10;&#9;&#9;L307.902,357.426z" id="el_CC7oEE_ml0h"/>
	<path stroke-miterlimit="10" d="M259.402,368.426c0,0.828-0.398,1.5-0.891,1.5&#10;&#9;&#9;H89.293c-0.492,0-0.891-0.672-0.891-1.5l0,0c0-0.828,0.398-1.5,0.891-1.5h169.219C259.004,366.926,259.402,367.598,259.402,368.426&#10;&#9;&#9;L259.402,368.426z" id="el_Cvnde2NOMH8"/>
</g>
<g id="el_q3q7KXdAlmZ">
	<g id="el_z5zP7tdWklr">
		<g id="el_lXDD_SZhZ1n">
			<path d="M282.201,295.508c0,5.5,4.398,10.095,9.897,10.212l74.751,1.581c5.498,0.117,10.257-4.279,10.604-9.769&#10;&#9;&#9;&#9;&#9;c0,0,0.759-12.193,5.214-16.854c5.911-6.185,10.128-14.417,6.954-14.417c-13.644,0-97.519-1.193-97.519-1.193&#10;&#9;&#9;&#9;&#9;c-5.5-0.078-9.901,4.358-9.901,9.858V295.508z" id="el_mrN16LGfQq9"/>
		</g>
		<text font-family="'MyriadHebrew-Regular'" font-size="12" id="el_PKlnlMY305D">English</text>
	</g>
	<g id="el_BKrqlAFRyRC">
		
			<line stroke-miterlimit="10" x1="352.868" y1="297.427" x2="358.201" y2="302.093" id="el_SGp_MGP3koo"/>
		
			<line stroke-miterlimit="10" x1="358.201" y1="302.093" x2="365.535" y2="293.093" id="el_T1LnrID6oNl"/>
		
			<line stroke-miterlimit="10" x1="358.201" y1="295.76" x2="365.535" y2="302.093" id="el_U9PscTEWn9J"/>
		
			<line stroke-miterlimit="10" x1="365.535" y1="302.093" x2="372.201" y2="293.093" id="el_tOpQu0xLzUh"/>
	</g>
</g>
<g id="el_yN6RJUD6Jnc">
	<circle cx="300.902" cy="293.426" r="4" id="el_fIJhvhSaXCx"/>
	<circle cx="321.902" cy="293.426" r="4" id="el_moP-mT2r_1a"/>
	<circle cx="338.902" cy="293.426" r="4" id="el_mKRzH2Fpf0J"/>
</g>
<script>(function(){var a=document.querySelector('#el_w13w_Jmjs'),b=a.querySelectorAll('style'),c=function(d){b.forEach(function(f){var g=f.textContent;g&amp;&amp;(f.textContent=g.replace(/transform-box:[^;\r\n]*/gi,'transform-box: '+d))})};c('initial'),window.requestAnimationFrame(function(){return c('fill-box')})})();</script></svg>